<mxfile host="app.diagrams.net" agent="Mozilla/5.0 (Macintosh; Intel Mac OS X 10_15_7) AppleWebKit/537.36 (KHTML, like Gecko) Chrome/139.0.0.0 Safari/537.36" version="28.1.2">
  <diagram name="第 1 页" id="wD96aVM6df2N9Y9P2egz">
    <mxGraphModel dx="2253" dy="1993" grid="1" gridSize="10" guides="1" tooltips="1" connect="1" arrows="1" fold="1" page="1" pageScale="1" pageWidth="827" pageHeight="1169" math="0" shadow="0">
      <root>
        <mxCell id="0" />
        <mxCell id="1" parent="0" />
        <mxCell id="1FD-UYc8OQ99b93QP7tv-39" value="" style="group" parent="1" vertex="1" connectable="0">
          <mxGeometry x="1540" y="-130" width="640" height="250" as="geometry" />
        </mxCell>
        <mxCell id="1FD-UYc8OQ99b93QP7tv-44" value="" style="group" parent="1FD-UYc8OQ99b93QP7tv-39" vertex="1" connectable="0">
          <mxGeometry x="-140" width="780" height="250" as="geometry" />
        </mxCell>
        <mxCell id="1FD-UYc8OQ99b93QP7tv-37" value="" style="rounded=0;whiteSpace=wrap;html=1;dashed=1;" parent="1FD-UYc8OQ99b93QP7tv-44" vertex="1">
          <mxGeometry x="60" y="30" width="780" height="220" as="geometry" />
        </mxCell>
        <mxCell id="1FD-UYc8OQ99b93QP7tv-34" style="edgeStyle=orthogonalEdgeStyle;rounded=0;orthogonalLoop=1;jettySize=auto;html=1;entryX=0;entryY=0.5;entryDx=0;entryDy=0;" parent="1FD-UYc8OQ99b93QP7tv-44" source="1FD-UYc8OQ99b93QP7tv-30" target="1FD-UYc8OQ99b93QP7tv-31" edge="1">
          <mxGeometry relative="1" as="geometry" />
        </mxCell>
        <mxCell id="1FD-UYc8OQ99b93QP7tv-30" value="live.live.xroom" style="rounded=1;whiteSpace=wrap;html=1;" parent="1FD-UYc8OQ99b93QP7tv-44" vertex="1">
          <mxGeometry x="200" y="120" width="120" height="60" as="geometry" />
        </mxCell>
        <mxCell id="1FD-UYc8OQ99b93QP7tv-31" value="live.live.dao-anchor" style="rounded=1;whiteSpace=wrap;html=1;" parent="1FD-UYc8OQ99b93QP7tv-44" vertex="1">
          <mxGeometry x="680" y="120" width="120" height="60" as="geometry" />
        </mxCell>
        <mxCell id="1FD-UYc8OQ99b93QP7tv-38" value="房间基本详情" style="text;html=1;align=center;verticalAlign=middle;resizable=0;points=[];autosize=1;strokeColor=none;fillColor=none;" parent="1FD-UYc8OQ99b93QP7tv-44" vertex="1">
          <mxGeometry x="400" width="100" height="30" as="geometry" />
        </mxCell>
        <mxCell id="1FD-UYc8OQ99b93QP7tv-42" value="热门房间本地缓存" style="shape=process;whiteSpace=wrap;html=1;backgroundOutline=1;" parent="1FD-UYc8OQ99b93QP7tv-44" vertex="1">
          <mxGeometry x="96" y="90" width="130" height="30" as="geometry" />
        </mxCell>
        <mxCell id="1FD-UYc8OQ99b93QP7tv-43" value="全量在播本地缓存" style="shape=process;whiteSpace=wrap;html=1;backgroundOutline=1;" parent="1FD-UYc8OQ99b93QP7tv-44" vertex="1">
          <mxGeometry x="96" y="180" width="130" height="30" as="geometry" />
        </mxCell>
        <mxCell id="1FD-UYc8OQ99b93QP7tv-91" value="&lt;div style=&quot;font-family: Menlo, Monaco, &amp;quot;Courier New&amp;quot;, monospace; line-height: 18px; white-space-collapse: preserve;&quot;&gt;&lt;span&gt;&lt;font style=&quot;color: light-dark(rgb(0, 0, 0), rgb(255, 255, 255));&quot;&gt;/live.daoanchor.v1.DaoAnchor/FetchRoomByIDs&lt;/font&gt;&lt;/span&gt;&lt;/div&gt;" style="text;html=1;align=center;verticalAlign=middle;resizable=0;points=[];autosize=1;strokeColor=none;fillColor=none;" parent="1FD-UYc8OQ99b93QP7tv-44" vertex="1">
          <mxGeometry x="340" y="110" width="330" height="30" as="geometry" />
        </mxCell>
        <mxCell id="1FD-UYc8OQ99b93QP7tv-24" value="" style="group" parent="1" vertex="1" connectable="0">
          <mxGeometry x="1580" y="250" width="970" height="380" as="geometry" />
        </mxCell>
        <mxCell id="1FD-UYc8OQ99b93QP7tv-22" value="" style="rounded=0;whiteSpace=wrap;html=1;dashed=1;" parent="1FD-UYc8OQ99b93QP7tv-24" vertex="1">
          <mxGeometry y="30" width="810" height="350" as="geometry" />
        </mxCell>
        <mxCell id="1FD-UYc8OQ99b93QP7tv-19" style="edgeStyle=orthogonalEdgeStyle;rounded=0;orthogonalLoop=1;jettySize=auto;html=1;entryX=0;entryY=0.5;entryDx=0;entryDy=0;" parent="1FD-UYc8OQ99b93QP7tv-24" source="1FD-UYc8OQ99b93QP7tv-10" target="1FD-UYc8OQ99b93QP7tv-14" edge="1">
          <mxGeometry relative="1" as="geometry" />
        </mxCell>
        <mxCell id="1FD-UYc8OQ99b93QP7tv-20" style="edgeStyle=orthogonalEdgeStyle;rounded=0;orthogonalLoop=1;jettySize=auto;html=1;entryX=0;entryY=0.5;entryDx=0;entryDy=0;" parent="1FD-UYc8OQ99b93QP7tv-24" source="1FD-UYc8OQ99b93QP7tv-10" target="1FD-UYc8OQ99b93QP7tv-13" edge="1">
          <mxGeometry relative="1" as="geometry" />
        </mxCell>
        <mxCell id="1FD-UYc8OQ99b93QP7tv-21" style="edgeStyle=orthogonalEdgeStyle;rounded=0;orthogonalLoop=1;jettySize=auto;html=1;entryX=0;entryY=0.5;entryDx=0;entryDy=0;" parent="1FD-UYc8OQ99b93QP7tv-24" source="1FD-UYc8OQ99b93QP7tv-10" target="1FD-UYc8OQ99b93QP7tv-15" edge="1">
          <mxGeometry relative="1" as="geometry">
            <Array as="points">
              <mxPoint x="290" y="200" />
              <mxPoint x="290" y="320" />
            </Array>
          </mxGeometry>
        </mxCell>
        <mxCell id="1FD-UYc8OQ99b93QP7tv-10" value="live.live-infra.playurl-stragtegy" style="rounded=1;whiteSpace=wrap;html=1;" parent="1FD-UYc8OQ99b93QP7tv-24" vertex="1">
          <mxGeometry x="30" y="170" width="160" height="60" as="geometry" />
        </mxCell>
        <mxCell id="1FD-UYc8OQ99b93QP7tv-13" value="data-center.titan.titan-user-service" style="rounded=1;whiteSpace=wrap;html=1;" parent="1FD-UYc8OQ99b93QP7tv-24" vertex="1">
          <mxGeometry x="390" y="70" width="200" height="60" as="geometry" />
        </mxCell>
        <mxCell id="1FD-UYc8OQ99b93QP7tv-14" value="video.live-edge-computing.stream-media-fetch" style="rounded=1;whiteSpace=wrap;html=1;" parent="1FD-UYc8OQ99b93QP7tv-24" vertex="1">
          <mxGeometry x="350" y="170" width="275" height="60" as="geometry" />
        </mxCell>
        <mxCell id="1FD-UYc8OQ99b93QP7tv-15" value="paladin(策略规则，热更新)" style="rounded=1;whiteSpace=wrap;html=1;" parent="1FD-UYc8OQ99b93QP7tv-24" vertex="1">
          <mxGeometry x="352.5" y="290" width="275" height="60" as="geometry" />
        </mxCell>
        <mxCell id="1FD-UYc8OQ99b93QP7tv-23" value="策略，决议调用pu拿流地址的默认清晰度，是否需要HLS以及是否调度真原画清晰度给到端上等策略" style="text;html=1;align=center;verticalAlign=middle;resizable=0;points=[];autosize=1;strokeColor=none;fillColor=none;" parent="1FD-UYc8OQ99b93QP7tv-24" vertex="1">
          <mxGeometry x="130" width="550" height="30" as="geometry" />
        </mxCell>
        <mxCell id="u2H28mPYu0D7wQaLzCzU-32" value="&lt;span&gt;&lt;span&gt;&lt;font style=&quot;color: rgb(0, 0, 0);&quot;&gt;&lt;span style=&quot;box-sizing: border-box; border: 0px solid; margin: 0px 0px 0px 5px; padding: 0px; font-family: ui-sans-serif, system-ui, sans-serif, &amp;quot;Apple Color Emoji&amp;quot;, &amp;quot;Segoe UI Emoji&amp;quot;, &amp;quot;Segoe UI Symbol&amp;quot;, &amp;quot;Noto Color Emoji&amp;quot;; font-size: 14px; text-align: left; text-wrap-mode: wrap;&quot; data-v-6d79ae31=&quot;&quot;&gt;/video.edge_computing.stream_media_fetch.v1.StreamMediaFetch/QueryRoomMediaCommonInfo&lt;/span&gt;&lt;span style=&quot;box-sizing: border-box; border: 1px solid rgb(225, 243, 216); margin: 0px 0px 0px 20px; padding: 0px 9px; align-items: center; border-radius: 4px; display: inline-flex; height: 24px; justify-content: center; vertical-align: middle; font-family: ui-sans-serif, system-ui, sans-serif, &amp;quot;Apple Color Emoji&amp;quot;, &amp;quot;Segoe UI Emoji&amp;quot;, &amp;quot;Segoe UI Symbol&amp;quot;, &amp;quot;Noto Color Emoji&amp;quot;; text-align: left; --el-tag-font-size: 12px; --el-tag-border-radius: 4px; --el-tag-border-radius-rounded: 9999px; line-height: 1; --el-icon-size: 14px; --el-tag-bg-color: light-dark(rgb(239.8,248.9,235.3), #141c10); --el-tag-border-color: light-dark(rgb(224.6,242.8,215.6), #16260f); --el-tag-hover-color: light-dark(#67c23a, #297803); --el-tag-text-color: light-dark(#67c23a, #297803);&quot; class=&quot;el-tag el-tag--success el-tag--light&quot; data-v-6d79ae31=&quot;&quot;&gt;&lt;/span&gt;&lt;/font&gt;&lt;/span&gt;&lt;/span&gt;&lt;div&gt;&lt;br&gt;&lt;/div&gt;" style="text;html=1;align=center;verticalAlign=middle;resizable=0;points=[];autosize=1;strokeColor=none;fillColor=none;" parent="1FD-UYc8OQ99b93QP7tv-24" vertex="1">
          <mxGeometry x="260" y="150" width="700" height="50" as="geometry" />
        </mxCell>
        <mxCell id="u2H28mPYu0D7wQaLzCzU-33" value="&lt;span style=&quot;font-family: ui-sans-serif, system-ui, sans-serif, &amp;quot;Apple Color Emoji&amp;quot;, &amp;quot;Segoe UI Emoji&amp;quot;, &amp;quot;Segoe UI Symbol&amp;quot;, &amp;quot;Noto Color Emoji&amp;quot;; font-size: 14px; text-align: left; text-wrap-mode: wrap;&quot;&gt;&lt;font style=&quot;color: light-dark(rgb(0, 0, 0), rgb(255, 255, 255));&quot;&gt;/datacenter.service.titan.v1.TitanUserServer/CheckTagBatch&lt;/font&gt;&lt;/span&gt;" style="text;html=1;align=center;verticalAlign=middle;resizable=0;points=[];autosize=1;strokeColor=none;fillColor=none;" parent="1FD-UYc8OQ99b93QP7tv-24" vertex="1">
          <mxGeometry x="130" y="40" width="410" height="30" as="geometry" />
        </mxCell>
        <mxCell id="1FD-UYc8OQ99b93QP7tv-79" style="edgeStyle=orthogonalEdgeStyle;rounded=0;orthogonalLoop=1;jettySize=auto;html=1;entryX=0;entryY=0.5;entryDx=0;entryDy=0;" parent="1" source="1FD-UYc8OQ99b93QP7tv-47" target="1FD-UYc8OQ99b93QP7tv-30" edge="1">
          <mxGeometry relative="1" as="geometry">
            <Array as="points">
              <mxPoint x="1350" y="700" />
              <mxPoint x="1350" y="20" />
            </Array>
          </mxGeometry>
        </mxCell>
        <mxCell id="1FD-UYc8OQ99b93QP7tv-81" style="edgeStyle=orthogonalEdgeStyle;rounded=0;orthogonalLoop=1;jettySize=auto;html=1;entryX=0;entryY=0.5;entryDx=0;entryDy=0;" parent="1" source="1FD-UYc8OQ99b93QP7tv-47" target="1FD-UYc8OQ99b93QP7tv-10" edge="1">
          <mxGeometry relative="1" as="geometry">
            <Array as="points">
              <mxPoint x="1350" y="700" />
              <mxPoint x="1350" y="450" />
            </Array>
          </mxGeometry>
        </mxCell>
        <mxCell id="1FD-UYc8OQ99b93QP7tv-47" value="" style="rounded=0;whiteSpace=wrap;html=1;dashed=1;" parent="1" vertex="1">
          <mxGeometry x="650" y="370" width="440" height="660" as="geometry" />
        </mxCell>
        <mxCell id="1FD-UYc8OQ99b93QP7tv-71" style="edgeStyle=orthogonalEdgeStyle;rounded=0;orthogonalLoop=1;jettySize=auto;html=1;entryX=0;entryY=0.5;entryDx=0;entryDy=0;" parent="1" source="1FD-UYc8OQ99b93QP7tv-1" target="1FD-UYc8OQ99b93QP7tv-5" edge="1">
          <mxGeometry relative="1" as="geometry" />
        </mxCell>
        <mxCell id="1FD-UYc8OQ99b93QP7tv-1" value="" style="verticalLabelPosition=bottom;verticalAlign=top;html=1;shadow=0;dashed=0;strokeWidth=1;shape=mxgraph.android.phone2;strokeColor=#c0c0c0;" parent="1" vertex="1">
          <mxGeometry x="-210" y="460" width="40" height="80" as="geometry" />
        </mxCell>
        <mxCell id="1FD-UYc8OQ99b93QP7tv-72" style="edgeStyle=orthogonalEdgeStyle;rounded=0;orthogonalLoop=1;jettySize=auto;html=1;entryX=0;entryY=0.5;entryDx=0;entryDy=0;" parent="1" source="1FD-UYc8OQ99b93QP7tv-5" target="1FD-UYc8OQ99b93QP7tv-7" edge="1">
          <mxGeometry relative="1" as="geometry" />
        </mxCell>
        <mxCell id="1FD-UYc8OQ99b93QP7tv-5" value="SLB" style="rounded=1;whiteSpace=wrap;html=1;" parent="1" vertex="1">
          <mxGeometry x="160" y="580" width="80" height="60" as="geometry" />
        </mxCell>
        <mxCell id="1FD-UYc8OQ99b93QP7tv-74" style="edgeStyle=orthogonalEdgeStyle;rounded=0;orthogonalLoop=1;jettySize=auto;html=1;entryX=0;entryY=0.5;entryDx=0;entryDy=0;" parent="1" source="1FD-UYc8OQ99b93QP7tv-7" target="1FD-UYc8OQ99b93QP7tv-45" edge="1">
          <mxGeometry relative="1" as="geometry" />
        </mxCell>
        <mxCell id="1FD-UYc8OQ99b93QP7tv-75" style="edgeStyle=orthogonalEdgeStyle;rounded=0;orthogonalLoop=1;jettySize=auto;html=1;entryX=0;entryY=0.5;entryDx=0;entryDy=0;" parent="1" source="1FD-UYc8OQ99b93QP7tv-7" target="1FD-UYc8OQ99b93QP7tv-46" edge="1">
          <mxGeometry relative="1" as="geometry" />
        </mxCell>
        <mxCell id="1FD-UYc8OQ99b93QP7tv-7" value="APIGW&lt;br&gt;infra.gate-way.live-room-gateway" style="rounded=1;whiteSpace=wrap;html=1;" parent="1" vertex="1">
          <mxGeometry x="350" y="580" width="180" height="60" as="geometry" />
        </mxCell>
        <mxCell id="1FD-UYc8OQ99b93QP7tv-8" value="live.live.app-room" style="rounded=1;whiteSpace=wrap;html=1;" parent="1" vertex="1">
          <mxGeometry x="810" y="460" width="130" height="60" as="geometry" />
        </mxCell>
        <mxCell id="1FD-UYc8OQ99b93QP7tv-9" value="live.live.web-room" style="rounded=1;whiteSpace=wrap;html=1;" parent="1" vertex="1">
          <mxGeometry x="810" y="759.9" width="130" height="80" as="geometry" />
        </mxCell>
        <mxCell id="1FD-UYc8OQ99b93QP7tv-70" style="edgeStyle=orthogonalEdgeStyle;rounded=0;orthogonalLoop=1;jettySize=auto;html=1;entryX=0;entryY=0.5;entryDx=0;entryDy=0;" parent="1" target="1FD-UYc8OQ99b93QP7tv-5" edge="1">
          <mxGeometry relative="1" as="geometry">
            <mxPoint x="-170" y="714.5999999999999" as="sourcePoint" />
          </mxGeometry>
        </mxCell>
        <mxCell id="1FD-UYc8OQ99b93QP7tv-29" value="paladin&lt;br&gt;1. 重保房间配置&lt;br&gt;2. 重包房间的配置流与cdn调度信息" style="rounded=1;whiteSpace=wrap;html=1;" parent="1" vertex="1">
          <mxGeometry x="800" y="940" width="245" height="60" as="geometry" />
        </mxCell>
        <mxCell id="1FD-UYc8OQ99b93QP7tv-48" value="直播网关" style="text;html=1;align=center;verticalAlign=middle;resizable=0;points=[];autosize=1;strokeColor=none;fillColor=none;" parent="1" vertex="1">
          <mxGeometry x="800" y="340" width="70" height="30" as="geometry" />
        </mxCell>
        <mxCell id="1FD-UYc8OQ99b93QP7tv-53" style="edgeStyle=orthogonalEdgeStyle;rounded=0;orthogonalLoop=1;jettySize=auto;html=1;entryX=0.5;entryY=0;entryDx=0;entryDy=0;" parent="1" source="1FD-UYc8OQ99b93QP7tv-50" target="1FD-UYc8OQ99b93QP7tv-29" edge="1">
          <mxGeometry relative="1" as="geometry">
            <Array as="points">
              <mxPoint x="1050" y="539" />
              <mxPoint x="1050" y="910" />
              <mxPoint x="923" y="910" />
            </Array>
          </mxGeometry>
        </mxCell>
        <mxCell id="1FD-UYc8OQ99b93QP7tv-50" value="兜底流sdk" style="shape=process;whiteSpace=wrap;html=1;backgroundOutline=1;" parent="1" vertex="1">
          <mxGeometry x="810" y="520" width="130" height="37.8" as="geometry" />
        </mxCell>
        <mxCell id="1FD-UYc8OQ99b93QP7tv-56" style="edgeStyle=orthogonalEdgeStyle;rounded=0;orthogonalLoop=1;jettySize=auto;html=1;entryX=0.5;entryY=0;entryDx=0;entryDy=0;" parent="1" source="1FD-UYc8OQ99b93QP7tv-51" target="1FD-UYc8OQ99b93QP7tv-29" edge="1">
          <mxGeometry relative="1" as="geometry">
            <Array as="points">
              <mxPoint x="875" y="910" />
              <mxPoint x="923" y="910" />
            </Array>
          </mxGeometry>
        </mxCell>
        <mxCell id="1FD-UYc8OQ99b93QP7tv-51" value="兜底流sdk" style="shape=process;whiteSpace=wrap;html=1;backgroundOutline=1;" parent="1" vertex="1">
          <mxGeometry x="810" y="839.9" width="130" height="37.8" as="geometry" />
        </mxCell>
        <mxCell id="1FD-UYc8OQ99b93QP7tv-46" value="热门房间本地缓存" style="shape=process;whiteSpace=wrap;html=1;backgroundOutline=1;" parent="1" vertex="1">
          <mxGeometry x="680" y="781" width="130" height="37.8" as="geometry" />
        </mxCell>
        <mxCell id="1FD-UYc8OQ99b93QP7tv-45" value="热门房间本地缓存" style="shape=process;whiteSpace=wrap;html=1;backgroundOutline=1;" parent="1" vertex="1">
          <mxGeometry x="680" y="471.1" width="130" height="37.8" as="geometry" />
        </mxCell>
        <mxCell id="1FD-UYc8OQ99b93QP7tv-85" style="edgeStyle=orthogonalEdgeStyle;rounded=0;orthogonalLoop=1;jettySize=auto;html=1;entryX=0.381;entryY=0.124;entryDx=0;entryDy=0;entryPerimeter=0;" parent="1" source="1FD-UYc8OQ99b93QP7tv-8" edge="1">
          <mxGeometry relative="1" as="geometry">
            <Array as="points">
              <mxPoint x="1350" y="490" />
              <mxPoint x="1350" y="970" />
            </Array>
            <mxPoint x="1709.926" y="969.768" as="targetPoint" />
          </mxGeometry>
        </mxCell>
        <mxCell id="1FD-UYc8OQ99b93QP7tv-88" value="&lt;font&gt;&lt;span style=&quot;font-family: Menlo, Monaco, &amp;quot;Courier New&amp;quot;, monospace; white-space-collapse: preserve;&quot;&gt;/xlive/&lt;/span&gt;&lt;span style=&quot;font-family: Menlo, Monaco, &amp;quot;Courier New&amp;quot;, monospace; white-space-collapse: preserve;&quot;&gt;app&lt;/span&gt;&lt;span style=&quot;font-family: Menlo, Monaco, &amp;quot;Courier New&amp;quot;, monospace; white-space-collapse: preserve;&quot;&gt;-&lt;/span&gt;&lt;span style=&quot;font-family: Menlo, Monaco, &amp;quot;Courier New&amp;quot;, monospace; white-space-collapse: preserve;&quot;&gt;room&lt;/span&gt;&lt;span style=&quot;font-family: Menlo, Monaco, &amp;quot;Courier New&amp;quot;, monospace; white-space-collapse: preserve;&quot;&gt;/v2/&lt;/span&gt;&lt;span style=&quot;font-family: Menlo, Monaco, &amp;quot;Courier New&amp;quot;, monospace; white-space-collapse: preserve;&quot;&gt;index&lt;/span&gt;&lt;span style=&quot;font-family: Menlo, Monaco, &amp;quot;Courier New&amp;quot;, monospace; white-space-collapse: preserve;&quot;&gt;/&lt;/span&gt;&lt;span style=&quot;font-family: Menlo, Monaco, &amp;quot;Courier New&amp;quot;, monospace; white-space-collapse: preserve;&quot;&gt;getRoomPlayInfo&lt;/span&gt;&lt;/font&gt;" style="text;html=1;align=center;verticalAlign=middle;resizable=0;points=[];autosize=1;strokeColor=none;fillColor=none;" parent="1" vertex="1">
          <mxGeometry x="-5" y="540.0000000000001" width="310" height="30" as="geometry" />
        </mxCell>
        <mxCell id="1FD-UYc8OQ99b93QP7tv-89" value="&lt;font style=&quot;color: light-dark(rgb(0, 0, 0), rgb(255, 255, 255));&quot;&gt;&lt;span style=&quot;forced-color-adjust: none; font-size: 12px; font-style: normal; font-variant-ligatures: normal; font-variant-caps: normal; font-weight: 400; letter-spacing: normal; orphans: 2; text-align: center; text-indent: 0px; text-transform: none; widows: 2; word-spacing: 0px; -webkit-text-stroke-width: 0px; white-space: pre; text-decoration-thickness: initial; text-decoration-style: initial; text-decoration-color: initial; font-family: Menlo, Monaco, &amp;quot;Courier New&amp;quot;, monospace; box-shadow: none !important;&quot;&gt;/xlive/web&lt;/span&gt;&lt;span style=&quot;forced-color-adjust: none; font-size: 12px; font-style: normal; font-variant-ligatures: normal; font-variant-caps: normal; font-weight: 400; letter-spacing: normal; orphans: 2; text-align: center; text-indent: 0px; text-transform: none; widows: 2; word-spacing: 0px; -webkit-text-stroke-width: 0px; white-space: pre; text-decoration-thickness: initial; text-decoration-style: initial; text-decoration-color: initial; font-family: Menlo, Monaco, &amp;quot;Courier New&amp;quot;, monospace; box-shadow: none !important;&quot;&gt;-&lt;/span&gt;&lt;span style=&quot;forced-color-adjust: none; font-size: 12px; font-style: normal; font-variant-ligatures: normal; font-variant-caps: normal; font-weight: 400; letter-spacing: normal; orphans: 2; text-align: center; text-indent: 0px; text-transform: none; widows: 2; word-spacing: 0px; -webkit-text-stroke-width: 0px; white-space: pre; text-decoration-thickness: initial; text-decoration-style: initial; text-decoration-color: initial; font-family: Menlo, Monaco, &amp;quot;Courier New&amp;quot;, monospace; box-shadow: none !important;&quot;&gt;room&lt;/span&gt;&lt;span style=&quot;forced-color-adjust: none; font-size: 12px; font-style: normal; font-variant-ligatures: normal; font-variant-caps: normal; font-weight: 400; letter-spacing: normal; orphans: 2; text-align: center; text-indent: 0px; text-transform: none; widows: 2; word-spacing: 0px; -webkit-text-stroke-width: 0px; white-space: pre; text-decoration-thickness: initial; text-decoration-style: initial; text-decoration-color: initial; font-family: Menlo, Monaco, &amp;quot;Courier New&amp;quot;, monospace; box-shadow: none !important;&quot;&gt;/v2/&lt;/span&gt;&lt;span style=&quot;forced-color-adjust: none; font-size: 12px; font-style: normal; font-variant-ligatures: normal; font-variant-caps: normal; font-weight: 400; letter-spacing: normal; orphans: 2; text-align: center; text-indent: 0px; text-transform: none; widows: 2; word-spacing: 0px; -webkit-text-stroke-width: 0px; white-space: pre; text-decoration-thickness: initial; text-decoration-style: initial; text-decoration-color: initial; font-family: Menlo, Monaco, &amp;quot;Courier New&amp;quot;, monospace; box-shadow: none !important;&quot;&gt;index&lt;/span&gt;&lt;span style=&quot;forced-color-adjust: none; font-size: 12px; font-style: normal; font-variant-ligatures: normal; font-variant-caps: normal; font-weight: 400; letter-spacing: normal; orphans: 2; text-align: center; text-indent: 0px; text-transform: none; widows: 2; word-spacing: 0px; -webkit-text-stroke-width: 0px; white-space: pre; text-decoration-thickness: initial; text-decoration-style: initial; text-decoration-color: initial; font-family: Menlo, Monaco, &amp;quot;Courier New&amp;quot;, monospace; box-shadow: none !important;&quot;&gt;/&lt;/span&gt;&lt;span style=&quot;forced-color-adjust: none; font-size: 12px; font-style: normal; font-variant-ligatures: normal; font-variant-caps: normal; font-weight: 400; letter-spacing: normal; orphans: 2; text-align: center; text-indent: 0px; text-transform: none; widows: 2; word-spacing: 0px; -webkit-text-stroke-width: 0px; white-space: pre; text-decoration-thickness: initial; text-decoration-style: initial; text-decoration-color: initial; font-family: Menlo, Monaco, &amp;quot;Courier New&amp;quot;, monospace; box-shadow: none !important;&quot;&gt;getRoomPlayInfo&lt;/span&gt;&lt;/font&gt;" style="text;whiteSpace=wrap;html=1;" parent="1" vertex="1">
          <mxGeometry x="-5" y="660" width="320" height="40" as="geometry" />
        </mxCell>
        <mxCell id="1FD-UYc8OQ99b93QP7tv-90" value="&lt;div style=&quot;font-family: Menlo, Monaco, &amp;quot;Courier New&amp;quot;, monospace; line-height: 18px; white-space-collapse: preserve;&quot;&gt;&lt;font style=&quot;color: light-dark(rgb(0, 0, 0), rgb(255, 255, 255));&quot;&gt;/live.xroom.v1.Room/GetRoomPlayInfo&lt;/font&gt;&lt;/div&gt;" style="text;html=1;align=center;verticalAlign=middle;resizable=0;points=[];autosize=1;strokeColor=none;fillColor=none;" parent="1" vertex="1">
          <mxGeometry x="1180" y="-10" width="280" height="30" as="geometry" />
        </mxCell>
        <mxCell id="1FD-UYc8OQ99b93QP7tv-96" value="&lt;span style=&quot;font-family: ui-sans-serif, system-ui, sans-serif, &amp;quot;Apple Color Emoji&amp;quot;, &amp;quot;Segoe UI Emoji&amp;quot;, &amp;quot;Segoe UI Symbol&amp;quot;, &amp;quot;Noto Color Emoji&amp;quot;; font-size: 14px; text-align: left; text-wrap-mode: wrap;&quot;&gt;&lt;font style=&quot;color: light-dark(rgb(0, 0, 0), rgb(255, 255, 255));&quot;&gt;/live.playurl.strategy.v1.PlayUrlStrategy/SinglePlayUrlStrategy&lt;/font&gt;&lt;/span&gt;" style="text;html=1;align=center;verticalAlign=middle;resizable=0;points=[];autosize=1;strokeColor=none;fillColor=none;" parent="1" vertex="1">
          <mxGeometry x="1360" y="390" width="420" height="30" as="geometry" />
        </mxCell>
        <mxCell id="1FD-UYc8OQ99b93QP7tv-97" value="&lt;span&gt;&lt;span&gt;&lt;font style=&quot;color: rgb(0, 0, 0);&quot;&gt;&lt;span style=&quot;box-sizing: border-box; border: 0px solid; margin: 0px 0px 0px 5px; padding: 0px; font-family: ui-sans-serif, system-ui, sans-serif, &amp;quot;Apple Color Emoji&amp;quot;, &amp;quot;Segoe UI Emoji&amp;quot;, &amp;quot;Segoe UI Symbol&amp;quot;, &amp;quot;Noto Color Emoji&amp;quot;; font-size: 14px; text-align: left; text-wrap-mode: wrap;&quot; data-v-6d79ae31=&quot;&quot;&gt;/video.pung.playurl.v1.Playurl/OldOnetierPlayurl&lt;/span&gt;&lt;span style=&quot;box-sizing: border-box; border: 1px solid rgb(225, 243, 216); margin: 0px 0px 0px 20px; padding: 0px 9px; align-items: center; border-radius: 4px; display: inline-flex; height: 24px; justify-content: center; vertical-align: middle; font-family: ui-sans-serif, system-ui, sans-serif, &amp;quot;Apple Color Emoji&amp;quot;, &amp;quot;Segoe UI Emoji&amp;quot;, &amp;quot;Segoe UI Symbol&amp;quot;, &amp;quot;Noto Color Emoji&amp;quot;; text-align: left; --el-tag-font-size: 12px; --el-tag-border-radius: 4px; --el-tag-border-radius-rounded: 9999px; line-height: 1; --el-icon-size: 14px; --el-tag-bg-color: light-dark(rgb(239.8,248.9,235.3), #141c10); --el-tag-border-color: light-dark(rgb(224.6,242.8,215.6), #16260f); --el-tag-hover-color: light-dark(#67c23a, #297803); --el-tag-text-color: light-dark(#67c23a, #297803);&quot; class=&quot;el-tag el-tag--success el-tag--light&quot; data-v-6d79ae31=&quot;&quot;&gt;&lt;/span&gt;&lt;/font&gt;&lt;/span&gt;&lt;/span&gt;&lt;div&gt;&lt;br&gt;&lt;/div&gt;" style="text;html=1;align=center;verticalAlign=middle;resizable=0;points=[];autosize=1;strokeColor=none;fillColor=none;" parent="1" vertex="1">
          <mxGeometry x="1340" y="945" width="370" height="50" as="geometry" />
        </mxCell>
        <mxCell id="u2H28mPYu0D7wQaLzCzU-26" value="" style="group" parent="1" vertex="1" connectable="0">
          <mxGeometry x="1700" y="830" width="1810" height="642" as="geometry" />
        </mxCell>
        <mxCell id="u2H28mPYu0D7wQaLzCzU-25" value="CDN调度" style="text;html=1;align=center;verticalAlign=middle;resizable=0;points=[];autosize=1;strokeColor=none;fillColor=none;" parent="u2H28mPYu0D7wQaLzCzU-26" vertex="1">
          <mxGeometry x="1430" width="70" height="30" as="geometry" />
        </mxCell>
        <mxCell id="u2H28mPYu0D7wQaLzCzU-31" value="" style="group" parent="u2H28mPYu0D7wQaLzCzU-26" vertex="1" connectable="0">
          <mxGeometry y="20" width="1810" height="612" as="geometry" />
        </mxCell>
        <mxCell id="u2H28mPYu0D7wQaLzCzU-1" value="" style="rounded=0;whiteSpace=wrap;html=1;dashed=1;dashPattern=8 8;" parent="u2H28mPYu0D7wQaLzCzU-31" vertex="1">
          <mxGeometry x="1090" y="7" width="690" height="605" as="geometry" />
        </mxCell>
        <mxCell id="u2H28mPYu0D7wQaLzCzU-2" value="" style="rounded=0;whiteSpace=wrap;html=1;dashed=1;dashPattern=8 8;" parent="u2H28mPYu0D7wQaLzCzU-31" vertex="1">
          <mxGeometry x="10" y="22" width="820" height="590" as="geometry" />
        </mxCell>
        <mxCell id="u2H28mPYu0D7wQaLzCzU-3" style="edgeStyle=orthogonalEdgeStyle;rounded=0;orthogonalLoop=1;jettySize=auto;html=1;entryX=0.5;entryY=0;entryDx=0;entryDy=0;" parent="u2H28mPYu0D7wQaLzCzU-31" source="u2H28mPYu0D7wQaLzCzU-4" target="u2H28mPYu0D7wQaLzCzU-6" edge="1">
          <mxGeometry relative="1" as="geometry" />
        </mxCell>
        <mxCell id="u2H28mPYu0D7wQaLzCzU-4" value="&lt;span style=&quot;font-family: ui-sans-serif, system-ui, sans-serif, &amp;quot;Apple Color Emoji&amp;quot;, &amp;quot;Segoe UI Emoji&amp;quot;, &amp;quot;Segoe UI Symbol&amp;quot;, &amp;quot;Noto Color Emoji&amp;quot;; text-align: left; text-wrap-mode: nowrap;&quot;&gt;&lt;font style=&quot;color: light-dark(rgb(0, 0, 0), rgb(255, 255, 255));&quot;&gt;video.pung.playurl&lt;/font&gt;&lt;/span&gt;" style="rounded=1;whiteSpace=wrap;html=1;" parent="u2H28mPYu0D7wQaLzCzU-31" vertex="1">
          <mxGeometry x="520" y="52" width="120" height="60" as="geometry" />
        </mxCell>
        <mxCell id="u2H28mPYu0D7wQaLzCzU-5" style="edgeStyle=orthogonalEdgeStyle;rounded=0;orthogonalLoop=1;jettySize=auto;html=1;exitX=0.5;exitY=1;exitDx=0;exitDy=0;entryX=0.5;entryY=0;entryDx=0;entryDy=0;" parent="u2H28mPYu0D7wQaLzCzU-31" source="u2H28mPYu0D7wQaLzCzU-6" target="u2H28mPYu0D7wQaLzCzU-8" edge="1">
          <mxGeometry relative="1" as="geometry" />
        </mxCell>
        <mxCell id="u2H28mPYu0D7wQaLzCzU-6" value="&lt;div style=&quot;font-family: Menlo, Monaco, &amp;quot;Courier New&amp;quot;, monospace; line-height: 18px; white-space: pre;&quot;&gt;&lt;div style=&quot;&quot;&gt;&lt;span&gt;&lt;font style=&quot;color: light-dark(rgb(0, 0, 0), rgb(255, 255, 255));&quot;&gt;video.live.schedule-stream&lt;/font&gt;&lt;/span&gt;&lt;/div&gt;&lt;/div&gt;" style="rounded=1;whiteSpace=wrap;html=1;" parent="u2H28mPYu0D7wQaLzCzU-31" vertex="1">
          <mxGeometry x="440" y="212" width="280" height="60" as="geometry" />
        </mxCell>
        <mxCell id="u2H28mPYu0D7wQaLzCzU-7" style="edgeStyle=orthogonalEdgeStyle;rounded=0;orthogonalLoop=1;jettySize=auto;html=1;entryX=0.5;entryY=0;entryDx=0;entryDy=0;" parent="u2H28mPYu0D7wQaLzCzU-31" source="u2H28mPYu0D7wQaLzCzU-8" target="u2H28mPYu0D7wQaLzCzU-12" edge="1">
          <mxGeometry relative="1" as="geometry" />
        </mxCell>
        <mxCell id="u2H28mPYu0D7wQaLzCzU-8" value="&lt;div style=&quot;font-family: Menlo, Monaco, &amp;quot;Courier New&amp;quot;, monospace; line-height: 18px; white-space: pre;&quot;&gt;&lt;span&gt;&lt;font style=&quot;color: light-dark(rgb(0, 0, 0), rgb(255, 255, 255));&quot;&gt;video.live-core.stream-room&lt;/font&gt;&lt;/span&gt;&lt;/div&gt;" style="rounded=1;whiteSpace=wrap;html=1;" parent="u2H28mPYu0D7wQaLzCzU-31" vertex="1">
          <mxGeometry x="475" y="342" width="210" height="60" as="geometry" />
        </mxCell>
        <mxCell id="u2H28mPYu0D7wQaLzCzU-9" value="热门房间本地缓存" style="shape=process;whiteSpace=wrap;html=1;backgroundOutline=1;" parent="u2H28mPYu0D7wQaLzCzU-31" vertex="1">
          <mxGeometry x="390" y="67" width="130" height="30" as="geometry" />
        </mxCell>
        <mxCell id="u2H28mPYu0D7wQaLzCzU-10" value="&lt;span style=&quot;font-family: ui-sans-serif, system-ui, sans-serif, &amp;quot;Apple Color Emoji&amp;quot;, &amp;quot;Segoe UI Emoji&amp;quot;, &amp;quot;Segoe UI Symbol&amp;quot;, &amp;quot;Noto Color Emoji&amp;quot;; font-size: 14px; text-align: left; text-wrap-mode: wrap;&quot;&gt;&lt;font style=&quot;color: light-dark(rgb(0, 0, 0), rgb(255, 255, 255));&quot;&gt;/video.live.streamng.v2.Stream/GetMultiStreamInfo&lt;/font&gt;&lt;/span&gt;" style="text;html=1;align=center;verticalAlign=middle;resizable=0;points=[];autosize=1;strokeColor=none;fillColor=none;" parent="u2H28mPYu0D7wQaLzCzU-31" vertex="1">
          <mxGeometry x="570" y="150" width="350" height="30" as="geometry" />
        </mxCell>
        <mxCell id="u2H28mPYu0D7wQaLzCzU-11" value="&lt;span style=&quot;font-family: ui-sans-serif, system-ui, sans-serif, &amp;quot;Apple Color Emoji&amp;quot;, &amp;quot;Segoe UI Emoji&amp;quot;, &amp;quot;Segoe UI Symbol&amp;quot;, &amp;quot;Noto Color Emoji&amp;quot;; font-size: 14px; text-align: left; text-wrap-mode: wrap;&quot;&gt;&lt;font style=&quot;color: light-dark(rgb(0, 0, 0), rgb(255, 255, 255));&quot;&gt;/video.live_core.stream_room.v1.StreamRoomServer/BatchGetStreamDataByRoomIdMultiSource&lt;/font&gt;&lt;/span&gt;" style="text;html=1;align=center;verticalAlign=middle;resizable=0;points=[];autosize=1;strokeColor=none;fillColor=none;" parent="u2H28mPYu0D7wQaLzCzU-31" vertex="1">
          <mxGeometry x="580" y="292" width="640" height="30" as="geometry" />
        </mxCell>
        <mxCell id="u2H28mPYu0D7wQaLzCzU-12" value="&lt;div style=&quot;font-family: Menlo, Monaco, &amp;quot;Courier New&amp;quot;, monospace; line-height: 18px; white-space: pre;&quot;&gt;&lt;span&gt;&lt;font style=&quot;color: light-dark(rgb(0, 0, 0), rgb(255, 255, 255));&quot;&gt;video.live-core.stream-core&lt;/font&gt;&lt;/span&gt;&lt;/div&gt;" style="rounded=1;whiteSpace=wrap;html=1;" parent="u2H28mPYu0D7wQaLzCzU-31" vertex="1">
          <mxGeometry x="445" y="502" width="270" height="60" as="geometry" />
        </mxCell>
        <mxCell id="u2H28mPYu0D7wQaLzCzU-13" value="&lt;span&gt;&lt;span&gt;&lt;font style=&quot;color: light-dark(rgb(255, 255, 255), rgb(255, 255, 255));&quot;&gt;&lt;span style=&quot;box-sizing: border-box; border: 0px solid; margin: 0px 0px 0px 5px; padding: 0px; font-family: ui-sans-serif, system-ui, sans-serif, &amp;quot;Apple Color Emoji&amp;quot;, &amp;quot;Segoe UI Emoji&amp;quot;, &amp;quot;Segoe UI Symbol&amp;quot;, &amp;quot;Noto Color Emoji&amp;quot;; font-size: 14px; text-align: left; text-wrap-mode: wrap;&quot; data-v-6d79ae31=&quot;&quot;&gt;/video.live_core.stream_core.v1.streamCoreServer/GetStreamAvCoversMutilSource&lt;/span&gt;&lt;span style=&quot;box-sizing: border-box; border: 1px solid rgb(225, 243, 216); margin: 0px 0px 0px 20px; padding: 0px 9px; align-items: center; border-radius: 4px; display: inline-flex; height: 24px; justify-content: center; vertical-align: middle; font-family: ui-sans-serif, system-ui, sans-serif, &amp;quot;Apple Color Emoji&amp;quot;, &amp;quot;Segoe UI Emoji&amp;quot;, &amp;quot;Segoe UI Symbol&amp;quot;, &amp;quot;Noto Color Emoji&amp;quot;; text-align: left; --el-tag-font-size: 12px; --el-tag-border-radius: 4px; --el-tag-border-radius-rounded: 9999px; line-height: 1; --el-icon-size: 14px; --el-tag-bg-color: rgb(239.8,248.9,235.3); --el-tag-border-color: rgb(224.6,242.8,215.6); --el-tag-hover-color: #67c23a; --el-tag-text-color: #67c23a;&quot; class=&quot;el-tag el-tag--success el-tag--light&quot; data-v-6d79ae31=&quot;&quot;&gt;&lt;/span&gt;&lt;/font&gt;&lt;/span&gt;&lt;/span&gt;&lt;div&gt;&lt;br&gt;&lt;/div&gt;" style="text;html=1;align=center;verticalAlign=middle;resizable=0;points=[];autosize=1;strokeColor=none;fillColor=none;" parent="u2H28mPYu0D7wQaLzCzU-31" vertex="1">
          <mxGeometry y="442" width="600" height="50" as="geometry" />
        </mxCell>
        <mxCell id="u2H28mPYu0D7wQaLzCzU-14" value="&lt;font style=&quot;color: rgb(0, 0, 0);&quot;&gt;&lt;span style=&quot;box-sizing: border-box; border: 0px solid; margin: 0px 0px 0px 5px; padding: 0px; font-family: ui-sans-serif, system-ui, sans-serif, &amp;quot;Apple Color Emoji&amp;quot;, &amp;quot;Segoe UI Emoji&amp;quot;, &amp;quot;Segoe UI Symbol&amp;quot;, &amp;quot;Noto Color Emoji&amp;quot;; font-size: 14px; text-align: left; text-wrap-mode: wrap;&quot; data-v-6d79ae31=&quot;&quot;&gt;/video.live_core.stream_core.v1.streamCoreServer/StreamBatchGetMutilSource&lt;/span&gt;&lt;span style=&quot;box-sizing: border-box; border: 1px solid rgb(225, 243, 216); margin: 0px 0px 0px 20px; padding: 0px 9px; align-items: center; border-radius: 4px; display: inline-flex; height: 24px; justify-content: center; vertical-align: middle; font-family: ui-sans-serif, system-ui, sans-serif, &amp;quot;Apple Color Emoji&amp;quot;, &amp;quot;Segoe UI Emoji&amp;quot;, &amp;quot;Segoe UI Symbol&amp;quot;, &amp;quot;Noto Color Emoji&amp;quot;; text-align: left; --el-tag-font-size: 12px; --el-tag-border-radius: 4px; --el-tag-border-radius-rounded: 9999px; line-height: 1; --el-icon-size: 14px; --el-tag-bg-color: light-dark(rgb(239.8,248.9,235.3), #141c10); --el-tag-border-color: light-dark(rgb(224.6,242.8,215.6), #16260f); --el-tag-hover-color: light-dark(#67c23a, #297803); --el-tag-text-color: light-dark(#67c23a, #297803);&quot; class=&quot;el-tag el-tag--success el-tag--light&quot; data-v-6d79ae31=&quot;&quot;&gt;&lt;/span&gt;&lt;/font&gt;&lt;div&gt;&lt;br&gt;&lt;/div&gt;" style="text;html=1;align=center;verticalAlign=middle;resizable=0;points=[];autosize=1;strokeColor=none;fillColor=none;" parent="u2H28mPYu0D7wQaLzCzU-31" vertex="1">
          <mxGeometry x="550" y="442" width="580" height="50" as="geometry" />
        </mxCell>
        <mxCell id="u2H28mPYu0D7wQaLzCzU-15" style="edgeStyle=orthogonalEdgeStyle;rounded=0;orthogonalLoop=1;jettySize=auto;html=1;entryX=0.5;entryY=0;entryDx=0;entryDy=0;" parent="u2H28mPYu0D7wQaLzCzU-31" source="u2H28mPYu0D7wQaLzCzU-17" target="u2H28mPYu0D7wQaLzCzU-18" edge="1">
          <mxGeometry relative="1" as="geometry" />
        </mxCell>
        <mxCell id="u2H28mPYu0D7wQaLzCzU-16" style="edgeStyle=orthogonalEdgeStyle;rounded=0;orthogonalLoop=1;jettySize=auto;html=1;" parent="u2H28mPYu0D7wQaLzCzU-31" source="u2H28mPYu0D7wQaLzCzU-17" target="u2H28mPYu0D7wQaLzCzU-19" edge="1">
          <mxGeometry relative="1" as="geometry" />
        </mxCell>
        <mxCell id="u2H28mPYu0D7wQaLzCzU-17" value="&lt;div style=&quot;font-family: Menlo, Monaco, &amp;quot;Courier New&amp;quot;, monospace; line-height: 18px; white-space: pre;&quot;&gt;&lt;span&gt;&lt;font style=&quot;color: light-dark(rgb(0, 0, 0), rgb(255, 255, 255));&quot;&gt;infra.mg.playurl-v3&lt;/font&gt;&lt;/span&gt;&lt;/div&gt;" style="rounded=1;whiteSpace=wrap;html=1;" parent="u2H28mPYu0D7wQaLzCzU-31" vertex="1">
          <mxGeometry x="1330" y="42" width="200" height="60" as="geometry" />
        </mxCell>
        <mxCell id="u2H28mPYu0D7wQaLzCzU-18" value="&lt;div style=&quot;font-family: Menlo, Monaco, &amp;quot;Courier New&amp;quot;, monospace; line-height: 18px; white-space: pre;&quot;&gt;&lt;div style=&quot;line-height: 18px;&quot;&gt;&lt;span&gt;&lt;font style=&quot;color: light-dark(rgb(0, 0, 0), rgb(255, 255, 255));&quot;&gt;multimedia.lv.lawrencium&lt;/font&gt;&lt;/span&gt;&lt;/div&gt;&lt;/div&gt;" style="rounded=1;whiteSpace=wrap;html=1;" parent="u2H28mPYu0D7wQaLzCzU-31" vertex="1">
          <mxGeometry x="1130" y="202" width="200" height="60" as="geometry" />
        </mxCell>
        <mxCell id="u2H28mPYu0D7wQaLzCzU-19" value="&lt;div style=&quot;font-family: Menlo, Monaco, &amp;quot;Courier New&amp;quot;, monospace; line-height: 18px; white-space: pre;&quot;&gt;&lt;span style=&quot;font-family: ui-sans-serif, system-ui, sans-serif, &amp;quot;Apple Color Emoji&amp;quot;, &amp;quot;Segoe UI Emoji&amp;quot;, &amp;quot;Segoe UI Symbol&amp;quot;, &amp;quot;Noto Color Emoji&amp;quot;; text-align: left; white-space-collapse: collapse;&quot;&gt;&lt;font style=&quot;color: light-dark(rgb(0, 0, 0), rgb(255, 255, 255));&quot;&gt;video.live-cdn.bvccdn-ban-streamcenter&lt;/font&gt;&lt;/span&gt;&lt;/div&gt;" style="rounded=1;whiteSpace=wrap;html=1;" parent="u2H28mPYu0D7wQaLzCzU-31" vertex="1">
          <mxGeometry x="1470" y="202" width="250" height="60" as="geometry" />
        </mxCell>
        <mxCell id="u2H28mPYu0D7wQaLzCzU-20" style="edgeStyle=orthogonalEdgeStyle;rounded=0;orthogonalLoop=1;jettySize=auto;html=1;entryX=-0.02;entryY=0.617;entryDx=0;entryDy=0;entryPerimeter=0;" parent="u2H28mPYu0D7wQaLzCzU-31" source="u2H28mPYu0D7wQaLzCzU-4" target="u2H28mPYu0D7wQaLzCzU-17" edge="1">
          <mxGeometry relative="1" as="geometry" />
        </mxCell>
        <UserObject label="&lt;span style=&quot;font-family: ui-sans-serif, system-ui, sans-serif, &amp;quot;Apple Color Emoji&amp;quot;, &amp;quot;Segoe UI Emoji&amp;quot;, &amp;quot;Segoe UI Symbol&amp;quot;, &amp;quot;Noto Color Emoji&amp;quot;; font-size: 14px; font-style: normal; font-variant-ligatures: normal; font-variant-caps: normal; font-weight: 400; letter-spacing: normal; orphans: 2; text-align: left; text-indent: 0px; text-transform: none; widows: 2; word-spacing: 0px; -webkit-text-stroke-width: 0px; white-space: normal; text-decoration-thickness: initial; text-decoration-style: initial; text-decoration-color: initial; float: none; display: inline !important;&quot;&gt;&lt;font style=&quot;color: light-dark(rgb(0, 0, 0), rgb(255, 255, 255));&quot;&gt;/multimedia.lv.lawrencium.v1.LawrenciumService/GetIdcIdsByMultiSidInfo&lt;/font&gt;&lt;/span&gt;" link="&lt;span style=&quot;color: rgb(96, 98, 102); font-family: ui-sans-serif, system-ui, sans-serif, &amp;quot;Apple Color Emoji&amp;quot;, &amp;quot;Segoe UI Emoji&amp;quot;, &amp;quot;Segoe UI Symbol&amp;quot;, &amp;quot;Noto Color Emoji&amp;quot;; font-size: 14px; font-style: normal; font-variant-ligatures: normal; font-variant-caps: normal; font-weight: 400; letter-spacing: normal; orphans: 2; text-align: left; text-indent: 0px; text-transform: none; widows: 2; word-spacing: 0px; -webkit-text-stroke-width: 0px; white-space: normal; background-color: rgb(240, 246, 253); text-decoration-thickness: initial; text-decoration-style: initial; text-decoration-color: initial; display: inline !important; float: none;&quot;&gt;/multimedia.lv.lawrencium.v1.LawrenciumService/GetIdcIdsByMultiSidInfo&lt;/span&gt;" id="u2H28mPYu0D7wQaLzCzU-21">
          <mxCell style="text;whiteSpace=wrap;html=1;" parent="u2H28mPYu0D7wQaLzCzU-31" vertex="1">
            <mxGeometry x="940" y="112" width="500" height="40" as="geometry" />
          </mxCell>
        </UserObject>
        <mxCell id="u2H28mPYu0D7wQaLzCzU-22" value="&lt;span&gt;&lt;span&gt;&lt;span&gt;&lt;span&gt;&lt;font style=&quot;color: rgb(0, 0, 0);&quot;&gt;&lt;span style=&quot;box-sizing: border-box; border: 0px solid; margin: 0px 0px 0px 5px; padding: 0px; font-family: ui-sans-serif, system-ui, sans-serif, &amp;quot;Apple Color Emoji&amp;quot;, &amp;quot;Segoe UI Emoji&amp;quot;, &amp;quot;Segoe UI Symbol&amp;quot;, &amp;quot;Noto Color Emoji&amp;quot;; font-size: 14px; text-align: left; text-wrap-mode: wrap;&quot; data-v-6d79ae31=&quot;&quot;&gt;/streamCenter.service.v1.StreamCenter/GetStreams&lt;/span&gt;&lt;span style=&quot;box-sizing: border-box; border: 1px solid rgb(225, 243, 216); margin: 0px 0px 0px 20px; padding: 0px 9px; align-items: center; border-radius: 4px; display: inline-flex; height: 24px; justify-content: center; vertical-align: middle; font-family: ui-sans-serif, system-ui, sans-serif, &amp;quot;Apple Color Emoji&amp;quot;, &amp;quot;Segoe UI Emoji&amp;quot;, &amp;quot;Segoe UI Symbol&amp;quot;, &amp;quot;Noto Color Emoji&amp;quot;; text-align: left; --el-tag-font-size: 12px; --el-tag-border-radius: 4px; --el-tag-border-radius-rounded: 9999px; line-height: 1; --el-icon-size: 14px; --el-tag-bg-color: light-dark(rgb(239.8,248.9,235.3), #141c10); --el-tag-border-color: light-dark(rgb(224.6,242.8,215.6), #16260f); --el-tag-hover-color: light-dark(#67c23a, #297803); --el-tag-text-color: light-dark(#67c23a, #297803);&quot; class=&quot;el-tag el-tag--success el-tag--light&quot; data-v-6d79ae31=&quot;&quot;&gt;&lt;/span&gt;&lt;/font&gt;&lt;/span&gt;&lt;/span&gt;&lt;/span&gt;&lt;/span&gt;&lt;div&gt;&lt;br&gt;&lt;/div&gt;" style="text;html=1;align=center;verticalAlign=middle;resizable=0;points=[];autosize=1;strokeColor=none;fillColor=none;" parent="u2H28mPYu0D7wQaLzCzU-31" vertex="1">
          <mxGeometry x="1410" y="122" width="400" height="50" as="geometry" />
        </mxCell>
        <UserObject label="&lt;span style=&quot;font-family: ui-sans-serif, system-ui, sans-serif, &amp;quot;Apple Color Emoji&amp;quot;, &amp;quot;Segoe UI Emoji&amp;quot;, &amp;quot;Segoe UI Symbol&amp;quot;, &amp;quot;Noto Color Emoji&amp;quot;; font-size: 14px; font-style: normal; font-variant-ligatures: normal; font-variant-caps: normal; font-weight: 400; letter-spacing: normal; orphans: 2; text-align: left; text-indent: 0px; text-transform: none; widows: 2; word-spacing: 0px; -webkit-text-stroke-width: 0px; white-space: normal; text-decoration-thickness: initial; text-decoration-style: initial; text-decoration-color: initial; float: none; display: inline !important;&quot;&gt;&lt;font style=&quot;color: light-dark(rgb(0, 0, 0), rgb(255, 255, 255));&quot;&gt;/infra.mg.playurl_v3.v1.LiveResSched/GetBatchPlayurl&lt;/font&gt;&lt;/span&gt;" link="&lt;span style=&quot;color: rgb(96, 98, 102); font-family: ui-sans-serif, system-ui, sans-serif, &amp;quot;Apple Color Emoji&amp;quot;, &amp;quot;Segoe UI Emoji&amp;quot;, &amp;quot;Segoe UI Symbol&amp;quot;, &amp;quot;Noto Color Emoji&amp;quot;; font-size: 14px; font-style: normal; font-variant-ligatures: normal; font-variant-caps: normal; font-weight: 400; letter-spacing: normal; orphans: 2; text-align: left; text-indent: 0px; text-transform: none; widows: 2; word-spacing: 0px; -webkit-text-stroke-width: 0px; white-space: normal; background-color: rgb(245, 247, 250); text-decoration-thickness: initial; text-decoration-style: initial; text-decoration-color: initial; display: inline !important; float: none;&quot;&gt;/infra.mg.playurl_v3.v1.LiveResSched/GetBatchPlayurl&lt;/span&gt;" id="u2H28mPYu0D7wQaLzCzU-23">
          <mxCell style="text;whiteSpace=wrap;html=1;" parent="u2H28mPYu0D7wQaLzCzU-31" vertex="1">
            <mxGeometry x="780" y="57" width="380" height="40" as="geometry" />
          </mxCell>
        </UserObject>
        <mxCell id="u2H28mPYu0D7wQaLzCzU-24" value="&lt;span style=&quot;color: rgba(0, 0, 0, 0); font-family: monospace; font-size: 0px; text-align: start;&quot;&gt;%3CmxGraphModel%3E%3Croot%3E%3CmxCell%20id%3D%220%22%2F%3E%3CmxCell%20id%3D%221%22%20parent%3D%220%22%2F%3E%3CmxCell%20id%3D%222%22%20value%3D%22%22%20style%3D%22rounded%3D0%3BwhiteSpace%3Dwrap%3Bhtml%3D1%3Bdashed%3D1%3BdashPattern%3D8%208%3B%22%20vertex%3D%221%22%20parent%3D%221%22%3E%3CmxGeometry%20x%3D%22880%22%20y%3D%22765%22%20width%3D%22690%22%20height%3D%22605%22%20as%3D%22geometry%22%2F%3E%3C%2FmxCell%3E%3CmxCell%20id%3D%223%22%20value%3D%22%22%20style%3D%22rounded%3D0%3BwhiteSpace%3Dwrap%3Bhtml%3D1%3Bdashed%3D1%3BdashPattern%3D8%208%3B%22%20vertex%3D%221%22%20parent%3D%221%22%3E%3CmxGeometry%20x%3D%22-190%22%20y%3D%22780%22%20width%3D%22820%22%20height%3D%22590%22%20as%3D%22geometry%22%2F%3E%3C%2FmxCell%3E%3CmxCell%20id%3D%224%22%20style%3D%22edgeStyle%3DorthogonalEdgeStyle%3Brounded%3D0%3BorthogonalLoop%3D1%3BjettySize%3Dauto%3Bhtml%3D1%3BentryX%3D0.5%3BentryY%3D0%3BentryDx%3D0%3BentryDy%3D0%3B%22%20edge%3D%221%22%20source%3D%225%22%20target%3D%227%22%20parent%3D%221%22%3E%3CmxGeometry%20relative%3D%221%22%20as%3D%22geometry%22%2F%3E%3C%2FmxCell%3E%3CmxCell%20id%3D%225%22%20value%3D%22%26lt%3Bspan%20style%3D%26quot%3Bfont-family%3A%20ui-sans-serif%2C%20system-ui%2C%20sans-serif%2C%20%26amp%3Bquot%3BApple%20Color%20Emoji%26amp%3Bquot%3B%2C%20%26amp%3Bquot%3BSegoe%20UI%20Emoji%26amp%3Bquot%3B%2C%20%26amp%3Bquot%3BSegoe%20UI%20Symbol%26amp%3Bquot%3B%2C%20%26amp%3Bquot%3BNoto%20Color%20Emoji%26amp%3Bquot%3B%3B%20text-align%3A%20left%3B%20text-wrap-mode%3A%20nowrap%3B%26quot%3B%26gt%3B%26lt%3Bfont%20style%3D%26quot%3Bcolor%3A%20light-dark(rgb(255%2C%20255%2C%20255)%2C%20rgb(255%2C%20255%2C%20255))%3B%26quot%3B%26gt%3Bvideo.pung.playurl%26lt%3B%2Ffont%26gt%3B%26lt%3B%2Fspan%26gt%3B%22%20style%3D%22rounded%3D1%3BwhiteSpace%3Dwrap%3Bhtml%3D1%3B%22%20vertex%3D%221%22%20parent%3D%221%22%3E%3CmxGeometry%20x%3D%22310%22%20y%3D%22810%22%20width%3D%22120%22%20height%3D%2260%22%20as%3D%22geometry%22%2F%3E%3C%2FmxCell%3E%3CmxCell%20id%3D%226%22%20style%3D%22edgeStyle%3DorthogonalEdgeStyle%3Brounded%3D0%3BorthogonalLoop%3D1%3BjettySize%3Dauto%3Bhtml%3D1%3BexitX%3D0.5%3BexitY%3D1%3BexitDx%3D0%3BexitDy%3D0%3BentryX%3D0.5%3BentryY%3D0%3BentryDx%3D0%3BentryDy%3D0%3B%22%20edge%3D%221%22%20source%3D%227%22%20target%3D%229%22%20parent%3D%221%22%3E%3CmxGeometry%20relative%3D%221%22%20as%3D%22geometry%22%2F%3E%3C%2FmxCell%3E%3CmxCell%20id%3D%227%22%20value%3D%22%26lt%3Bdiv%20style%3D%26quot%3Bfont-family%3A%20Menlo%2C%20Monaco%2C%20%26amp%3Bquot%3BCourier%20New%26amp%3Bquot%3B%2C%20monospace%3B%20line-height%3A%2018px%3B%20white-space%3A%20pre%3B%26quot%3B%26gt%3B%26lt%3Bdiv%20style%3D%26quot%3B%26quot%3B%26gt%3B%26lt%3Bspan%26gt%3B%26lt%3Bfont%20style%3D%26quot%3Bcolor%3A%20light-dark(rgb(255%2C%20255%2C%20255)%2C%20rgb(255%2C%20255%2C%20255))%3B%26quot%3B%26gt%3Bvideo%26lt%3Bspan%26gt%3B.%26lt%3B%2Fspan%26gt%3Blive%26lt%3Bspan%26gt%3B.%26lt%3B%2Fspan%26gt%3Bschedule%26lt%3Bspan%26gt%3B-%26lt%3B%2Fspan%26gt%3Bstream%26lt%3B%2Ffont%26gt%3B%26lt%3B%2Fspan%26gt%3B%26lt%3B%2Fdiv%26gt%3B%26lt%3B%2Fdiv%26gt%3B%22%20style%3D%22rounded%3D1%3BwhiteSpace%3Dwrap%3Bhtml%3D1%3B%22%20vertex%3D%221%22%20parent%3D%221%22%3E%3CmxGeometry%20x%3D%22230%22%20y%3D%22970%22%20width%3D%22280%22%20height%3D%2260%22%20as%3D%22geometry%22%2F%3E%3C%2FmxCell%3E%3CmxCell%20id%3D%228%22%20style%3D%22edgeStyle%3DorthogonalEdgeStyle%3Brounded%3D0%3BorthogonalLoop%3D1%3BjettySize%3Dauto%3Bhtml%3D1%3BentryX%3D0.5%3BentryY%3D0%3BentryDx%3D0%3BentryDy%3D0%3B%22%20edge%3D%221%22%20source%3D%229%22%20target%3D%2213%22%20parent%3D%221%22%3E%3CmxGeometry%20relative%3D%221%22%20as%3D%22geometry%22%2F%3E%3C%2FmxCell%3E%3CmxCell%20id%3D%229%22%20value%3D%22%26lt%3Bdiv%20style%3D%26quot%3Bfont-family%3A%20Menlo%2C%20Monaco%2C%20%26amp%3Bquot%3BCourier%20New%26amp%3Bquot%3B%2C%20monospace%3B%20line-height%3A%2018px%3B%20white-space%3A%20pre%3B%26quot%3B%26gt%3B%26lt%3Bspan%26gt%3B%26lt%3Bfont%20style%3D%26quot%3Bcolor%3A%20light-dark(rgb(255%2C%20255%2C%20255)%2C%20rgb(255%2C%20255%2C%20255))%3B%26quot%3B%26gt%3Bvideo%26lt%3Bspan%26gt%3B.%26lt%3B%2Fspan%26gt%3Blive%26lt%3Bspan%26gt%3B-%26lt%3B%2Fspan%26gt%3Bcore%26lt%3Bspan%26gt%3B.%26lt%3B%2Fspan%26gt%3Bstream%26lt%3Bspan%26gt%3B-%26lt%3B%2Fspan%26gt%3Broom%26lt%3B%2Ffont%26gt%3B%26lt%3B%2Fspan%26gt%3B%26lt%3B%2Fdiv%26gt%3B%22%20style%3D%22rounded%3D1%3BwhiteSpace%3Dwrap%3Bhtml%3D1%3B%22%20vertex%3D%221%22%20parent%3D%221%22%3E%3CmxGeometry%20x%3D%22265%22%20y%3D%221100%22%20width%3D%22210%22%20height%3D%2260%22%20as%3D%22geometry%22%2F%3E%3C%2FmxCell%3E%3CmxCell%20id%3D%2210%22%20value%3D%22%E7%83%AD%E9%97%A8%E6%88%BF%E9%97%B4%E6%9C%AC%E5%9C%B0%E7%BC%93%E5%AD%98%22%20style%3D%22shape%3Dprocess%3BwhiteSpace%3Dwrap%3Bhtml%3D1%3BbackgroundOutline%3D1%3B%22%20vertex%3D%221%22%20parent%3D%221%22%3E%3CmxGeometry%20x%3D%22180%22%20y%3D%22825%22%20width%3D%22130%22%20height%3D%2230%22%20as%3D%22geometry%22%2F%3E%3C%2FmxCell%3E%3CmxCell%20id%3D%2211%22%20value%3D%22%26lt%3Bspan%20style%3D%26quot%3Bfont-family%3A%20ui-sans-serif%2C%20system-ui%2C%20sans-serif%2C%20%26amp%3Bquot%3BApple%20Color%20Emoji%26amp%3Bquot%3B%2C%20%26amp%3Bquot%3BSegoe%20UI%20Emoji%26amp%3Bquot%3B%2C%20%26amp%3Bquot%3BSegoe%20UI%20Symbol%26amp%3Bquot%3B%2C%20%26amp%3Bquot%3BNoto%20Color%20Emoji%26amp%3Bquot%3B%3B%20font-size%3A%2014px%3B%20text-align%3A%20left%3B%20text-wrap-mode%3A%20wrap%3B%26quot%3B%26gt%3B%26lt%3Bfont%20style%3D%26quot%3Bcolor%3A%20light-dark(rgb(255%2C%20255%2C%20255)%2C%20rgb(255%2C%20255%2C%20255))%3B%26quot%3B%26gt%3B%2Fvideo.live.streamng.v2.Stream%2FGetMultiStreamInfo%26lt%3B%2Ffont%26gt%3B%26lt%3B%2Fspan%26gt%3B%22%20style%3D%22text%3Bhtml%3D1%3Balign%3Dcenter%3BverticalAlign%3Dmiddle%3Bresizable%3D0%3Bpoints%3D%5B%5D%3Bautosize%3D1%3BstrokeColor%3Dnone%3BfillColor%3Dnone%3B%22%20vertex%3D%221%22%20parent%3D%221%22%3E%3CmxGeometry%20x%3D%22360%22%20y%3D%22908%22%20width%3D%22350%22%20height%3D%2230%22%20as%3D%22geometry%22%2F%3E%3C%2FmxCell%3E%3CmxCell%20id%3D%2212%22%20value%3D%22%26lt%3Bspan%20style%3D%26quot%3Bfont-family%3A%20ui-sans-serif%2C%20system-ui%2C%20sans-serif%2C%20%26amp%3Bquot%3BApple%20Color%20Emoji%26amp%3Bquot%3B%2C%20%26amp%3Bquot%3BSegoe%20UI%20Emoji%26amp%3Bquot%3B%2C%20%26amp%3Bquot%3BSegoe%20UI%20Symbol%26amp%3Bquot%3B%2C%20%26amp%3Bquot%3BNoto%20Color%20Emoji%26amp%3Bquot%3B%3B%20font-size%3A%2014px%3B%20text-align%3A%20left%3B%20text-wrap-mode%3A%20wrap%3B%26quot%3B%26gt%3B%26lt%3Bfont%20style%3D%26quot%3Bcolor%3A%20light-dark(rgb(255%2C%20255%2C%20255)%2C%20rgb(255%2C%20255%2C%20255))%3B%26quot%3B%26gt%3B%2Fvideo.live_core.stream_room.v1.StreamRoomServer%2FBatchGetStreamDataByRoomIdMultiSource%26lt%3B%2Ffont%26gt%3B%26lt%3B%2Fspan%26gt%3B%22%20style%3D%22text%3Bhtml%3D1%3Balign%3Dcenter%3BverticalAlign%3Dmiddle%3Bresizable%3D0%3Bpoints%3D%5B%5D%3Bautosize%3D1%3BstrokeColor%3Dnone%3BfillColor%3Dnone%3B%22%20vertex%3D%221%22%20parent%3D%221%22%3E%3CmxGeometry%20x%3D%22370%22%20y%3D%221050%22%20width%3D%22640%22%20height%3D%2230%22%20as%3D%22geometry%22%2F%3E%3C%2FmxCell%3E%3CmxCell%20id%3D%2213%22%20value%3D%22%26lt%3Bdiv%20style%3D%26quot%3Bfont-family%3A%20Menlo%2C%20Monaco%2C%20%26amp%3Bquot%3BCourier%20New%26amp%3Bquot%3B%2C%20monospace%3B%20line-height%3A%2018px%3B%20white-space%3A%20pre%3B%26quot%3B%26gt%3B%26lt%3Bspan%26gt%3B%26lt%3Bfont%20style%3D%26quot%3Bcolor%3A%20light-dark(rgb(255%2C%20255%2C%20255)%2C%20rgb(255%2C%20255%2C%20255))%3B%26quot%3B%26gt%3Bvideo%26lt%3Bspan%26gt%3B.%26lt%3B%2Fspan%26gt%3Blive%26lt%3Bspan%26gt%3B-%26lt%3B%2Fspan%26gt%3Bcore%26lt%3Bspan%26gt%3B.%26lt%3B%2Fspan%26gt%3Bstream%26lt%3Bspan%26gt%3B-%26lt%3B%2Fspan%26gt%3Bcore%26lt%3B%2Ffont%26gt%3B%26lt%3B%2Fspan%26gt%3B%26lt%3B%2Fdiv%26gt%3B%22%20style%3D%22rounded%3D1%3BwhiteSpace%3Dwrap%3Bhtml%3D1%3B%22%20vertex%3D%221%22%20parent%3D%221%22%3E%3CmxGeometry%20x%3D%22235%22%20y%3D%221260%22%20width%3D%22270%22%20height%3D%2260%22%20as%3D%22geometry%22%2F%3E%3C%2FmxCell%3E%3CmxCell%20id%3D%2214%22%20value%3D%22%26lt%3Bspan%26gt%3B%26lt%3Bspan%26gt%3B%26lt%3Bfont%20style%3D%26quot%3Bcolor%3A%20light-dark(rgb(255%2C%20255%2C%20255)%2C%20rgb(255%2C%20255%2C%20255))%3B%26quot%3B%26gt%3B%26lt%3Bspan%20style%3D%26quot%3Bbox-sizing%3A%20border-box%3B%20border%3A%200px%20solid%3B%20margin%3A%200px%200px%200px%205px%3B%20padding%3A%200px%3B%20font-family%3A%20ui-sans-serif%2C%20system-ui%2C%20sans-serif%2C%20%26amp%3Bquot%3BApple%20Color%20Emoji%26amp%3Bquot%3B%2C%20%26amp%3Bquot%3BSegoe%20UI%20Emoji%26amp%3Bquot%3B%2C%20%26amp%3Bquot%3BSegoe%20UI%20Symbol%26amp%3Bquot%3B%2C%20%26amp%3Bquot%3BNoto%20Color%20Emoji%26amp%3Bquot%3B%3B%20font-size%3A%2014px%3B%20text-align%3A%20left%3B%20text-wrap-mode%3A%20wrap%3B%26quot%3B%20data-v-6d79ae31%3D%26quot%3B%26quot%3B%26gt%3B%2Fvideo.live_core.stream_core.v1.streamCoreServer%2FGetStreamAvCoversMutilSource%26lt%3B%2Fspan%26gt%3B%26lt%3Bspan%20style%3D%26quot%3Bbox-sizing%3A%20border-box%3B%20border%3A%201px%20solid%20rgb(225%2C%20243%2C%20216)%3B%20margin%3A%200px%200px%200px%2020px%3B%20padding%3A%200px%209px%3B%20align-items%3A%20center%3B%20border-radius%3A%204px%3B%20display%3A%20inline-flex%3B%20height%3A%2024px%3B%20justify-content%3A%20center%3B%20vertical-align%3A%20middle%3B%20font-family%3A%20ui-sans-serif%2C%20system-ui%2C%20sans-serif%2C%20%26amp%3Bquot%3BApple%20Color%20Emoji%26amp%3Bquot%3B%2C%20%26amp%3Bquot%3BSegoe%20UI%20Emoji%26amp%3Bquot%3B%2C%20%26amp%3Bquot%3BSegoe%20UI%20Symbol%26amp%3Bquot%3B%2C%20%26amp%3Bquot%3BNoto%20Color%20Emoji%26amp%3Bquot%3B%3B%20text-align%3A%20left%3B%20--el-tag-font-size%3A%2012px%3B%20--el-tag-border-radius%3A%204px%3B%20--el-tag-border-radius-rounded%3A%209999px%3B%20line-height%3A%201%3B%20--el-icon-size%3A%2014px%3B%20--el-tag-bg-color%3A%20rgb(239.8%2C248.9%2C235.3)%3B%20--el-tag-border-color%3A%20rgb(224.6%2C242.8%2C215.6)%3B%20--el-tag-hover-color%3A%20%2367c23a%3B%20--el-tag-text-color%3A%20%2367c23a%3B%26quot%3B%20class%3D%26quot%3Bel-tag%20el-tag--success%20el-tag--light%26quot%3B%20data-v-6d79ae31%3D%26quot%3B%26quot%3B%26gt%3B%26lt%3B%2Fspan%26gt%3B%26lt%3B%2Ffont%26gt%3B%26lt%3B%2Fspan%26gt%3B%26lt%3B%2Fspan%26gt%3B%26lt%3Bdiv%26gt%3B%26lt%3Bbr%26gt%3B%26lt%3B%2Fdiv%26gt%3B%22%20style%3D%22text%3Bhtml%3D1%3Balign%3Dcenter%3BverticalAlign%3Dmiddle%3Bresizable%3D0%3Bpoints%3D%5B%5D%3Bautosize%3D1%3BstrokeColor%3Dnone%3BfillColor%3Dnone%3B%22%20vertex%3D%221%22%20parent%3D%221%22%3E%3CmxGeometry%20x%3D%22-210%22%20y%3D%221200%22%20width%3D%22600%22%20height%3D%2250%22%20as%3D%22geometry%22%2F%3E%3C%2FmxCell%3E%3CmxCell%20id%3D%2215%22%20value%3D%22%26lt%3Bfont%20style%3D%26quot%3Bcolor%3A%20light-dark(rgb(255%2C%20255%2C%20255)%2C%20rgb(255%2C%20255%2C%20255))%3B%26quot%3B%26gt%3B%26lt%3Bspan%26gt%3B%26lt%3Bspan%26gt%3B%26lt%3Bspan%20style%3D%26quot%3Bbox-sizing%3A%20border-box%3B%20border%3A%200px%20solid%3B%20margin%3A%200px%200px%200px%205px%3B%20padding%3A%200px%3B%20font-family%3A%20ui-sans-serif%2C%20system-ui%2C%20sans-serif%2C%20%26amp%3Bquot%3BApple%20Color%20Emoji%26amp%3Bquot%3B%2C%20%26amp%3Bquot%3BSegoe%20UI%20Emoji%26amp%3Bquot%3B%2C%20%26amp%3Bquot%3BSegoe%20UI%20Symbol%26amp%3Bquot%3B%2C%20%26amp%3Bquot%3BNoto%20Color%20Emoji%26amp%3Bquot%3B%3B%20font-size%3A%2014px%3B%20text-align%3A%20left%3B%20text-wrap-mode%3A%20wrap%3B%26quot%3B%20data-v-6d79ae31%3D%26quot%3B%26quot%3B%26gt%3B%2Fvideo.live_core.stream_core.v1.streamCoreServer%2FStreamBatchGetMutilSource%26lt%3B%2Fspan%26gt%3B%26lt%3Bspan%20style%3D%26quot%3Bbox-sizing%3A%20border-box%3B%20border%3A%201px%20solid%20rgb(225%2C%20243%2C%20216)%3B%20margin%3A%200px%200px%200px%2020px%3B%20padding%3A%200px%209px%3B%20--el-tag-font-size%3A%2012px%3B%20--el-tag-border-radius%3A%204px%3B%20--el-tag-border-radius-rounded%3A%209999px%3B%20align-items%3A%20center%3B%20border-radius%3A%204px%3B%20display%3A%20inline-flex%3B%20height%3A%2024px%3B%20justify-content%3A%20center%3B%20line-height%3A%201%3B%20vertical-align%3A%20middle%3B%20--el-icon-size%3A%2014px%3B%20--el-tag-bg-color%3A%20rgb(239.8%2C248.9%2C235.3)%3B%20--el-tag-border-color%3A%20rgb(224.6%2C242.8%2C215.6)%3B%20--el-tag-hover-color%3A%20%2367c23a%3B%20--el-tag-text-color%3A%20%2367c23a%3B%20font-family%3A%20ui-sans-serif%2C%20system-ui%2C%20sans-serif%2C%20%26amp%3Bquot%3BApple%20Color%20Emoji%26amp%3Bquot%3B%2C%20%26amp%3Bquot%3BSegoe%20UI%20Emoji%26amp%3Bquot%3B%2C%20%26amp%3Bquot%3BSegoe%20UI%20Symbol%26amp%3Bquot%3B%2C%20%26amp%3Bquot%3BNoto%20Color%20Emoji%26amp%3Bquot%3B%3B%20text-align%3A%20left%3B%20border-image%3A%20initial%3B%20--el-tag-font-size%3A%2012px%3B%20--el-tag-border-radius%3A%204px%3B%20--el-tag-border-radius-rounded%3A%209999px%3B%20line-height%3A%201%3B%20--el-icon-size%3A%2014px%3B%20--el-tag-bg-color%3A%20rgb(239.8%2C248.9%2C235.3)%3B%20--el-tag-border-color%3A%20rgb(224.6%2C242.8%2C215.6)%3B%20--el-tag-hover-color%3A%20%2367c23a%3B%20--el-tag-text-color%3A%20%2367c23a%3B%26quot%3B%20class%3D%26quot%3Bel-tag%20el-tag--success%20el-tag--light%26quot%3B%20data-v-6d79ae31%3D%26quot%3B%26quot%3B%26gt%3B%26lt%3B%2Fspan%26gt%3B%26lt%3B%2Fspan%26gt%3B%26lt%3B%2Fspan%26gt%3B%26lt%3B%2Ffont%26gt%3B%26lt%3Bdiv%26gt%3B%26lt%3Bbr%26gt%3B%26lt%3B%2Fdiv%26gt%3B%22%20style%3D%22text%3Bhtml%3D1%3Balign%3Dcenter%3BverticalAlign%3Dmiddle%3Bresizable%3D0%3Bpoints%3D%5B%5D%3Bautosize%3D1%3BstrokeColor%3Dnone%3BfillColor%3Dnone%3B%22%20vertex%3D%221%22%20parent%3D%221%22%3E%3CmxGeometry%20x%3D%22340%22%20y%3D%221200%22%20width%3D%22580%22%20height%3D%2250%22%20as%3D%22geometry%22%2F%3E%3C%2FmxCell%3E%3CmxCell%20id%3D%2216%22%20style%3D%22edgeStyle%3DorthogonalEdgeStyle%3Brounded%3D0%3BorthogonalLoop%3D1%3BjettySize%3Dauto%3Bhtml%3D1%3BentryX%3D0.5%3BentryY%3D0%3BentryDx%3D0%3BentryDy%3D0%3B%22%20edge%3D%221%22%20source%3D%2218%22%20target%3D%2219%22%20parent%3D%221%22%3E%3CmxGeometry%20relative%3D%221%22%20as%3D%22geometry%22%2F%3E%3C%2FmxCell%3E%3CmxCell%20id%3D%2217%22%20style%3D%22edgeStyle%3DorthogonalEdgeStyle%3Brounded%3D0%3BorthogonalLoop%3D1%3BjettySize%3Dauto%3Bhtml%3D1%3B%22%20edge%3D%221%22%20source%3D%2218%22%20target%3D%2220%22%20parent%3D%221%22%3E%3CmxGeometry%20relative%3D%221%22%20as%3D%22geometry%22%2F%3E%3C%2FmxCell%3E%3CmxCell%20id%3D%2218%22%20value%3D%22%26lt%3Bdiv%20style%3D%26quot%3Bfont-family%3A%20Menlo%2C%20Monaco%2C%20%26amp%3Bquot%3BCourier%20New%26amp%3Bquot%3B%2C%20monospace%3B%20line-height%3A%2018px%3B%20white-space%3A%20pre%3B%26quot%3B%26gt%3B%26lt%3Bspan%26gt%3B%26lt%3Bfont%20style%3D%26quot%3Bcolor%3A%20light-dark(rgb(255%2C%20255%2C%20255)%2C%20rgb(255%2C%20255%2C%20255))%3B%26quot%3B%26gt%3Binfra%26lt%3Bspan%26gt%3B.%26lt%3B%2Fspan%26gt%3Bmg%26lt%3Bspan%26gt%3B.%26lt%3B%2Fspan%26gt%3Bplayurl%26lt%3Bspan%26gt%3B-%26lt%3B%2Fspan%26gt%3Bv3%26lt%3B%2Ffont%26gt%3B%26lt%3B%2Fspan%26gt%3B%26lt%3B%2Fdiv%26gt%3B%22%20style%3D%22rounded%3D1%3BwhiteSpace%3Dwrap%3Bhtml%3D1%3B%22%20vertex%3D%221%22%20parent%3D%221%22%3E%3CmxGeometry%20x%3D%221120%22%20y%3D%22800%22%20width%3D%22200%22%20height%3D%2260%22%20as%3D%22geometry%22%2F%3E%3C%2FmxCell%3E%3CmxCell%20id%3D%2219%22%20value%3D%22%26lt%3Bdiv%20style%3D%26quot%3Bfont-family%3A%20Menlo%2C%20Monaco%2C%20%26amp%3Bquot%3BCourier%20New%26amp%3Bquot%3B%2C%20monospace%3B%20line-height%3A%2018px%3B%20white-space%3A%20pre%3B%26quot%3B%26gt%3B%26lt%3Bdiv%20style%3D%26quot%3Bline-height%3A%2018px%3B%26quot%3B%26gt%3B%26lt%3Bspan%26gt%3B%26lt%3Bfont%20style%3D%26quot%3Bcolor%3A%20light-dark(rgb(255%2C%20255%2C%20255)%2C%20rgb(255%2C%20255%2C%20255))%3B%26quot%3B%26gt%3Bmultimedia%26lt%3Bspan%26gt%3B.%26lt%3B%2Fspan%26gt%3Blv%26lt%3Bspan%26gt%3B.%26lt%3B%2Fspan%26gt%3Blawrencium%26lt%3B%2Ffont%26gt%3B%26lt%3B%2Fspan%26gt%3B%26lt%3B%2Fdiv%26gt%3B%26lt%3B%2Fdiv%26gt%3B%22%20style%3D%22rounded%3D1%3BwhiteSpace%3Dwrap%3Bhtml%3D1%3B%22%20vertex%3D%221%22%20parent%3D%221%22%3E%3CmxGeometry%20x%3D%22920%22%20y%3D%22960%22%20width%3D%22200%22%20height%3D%2260%22%20as%3D%22geometry%22%2F%3E%3C%2FmxCell%3E%3CmxCell%20id%3D%2220%22%20value%3D%22%26lt%3Bdiv%20style%3D%26quot%3Bfont-family%3A%20Menlo%2C%20Monaco%2C%20%26amp%3Bquot%3BCourier%20New%26amp%3Bquot%3B%2C%20monospace%3B%20line-height%3A%2018px%3B%20white-space%3A%20pre%3B%26quot%3B%26gt%3B%26lt%3Bspan%20style%3D%26quot%3Bfont-family%3A%20ui-sans-serif%2C%20system-ui%2C%20sans-serif%2C%20%26amp%3Bquot%3BApple%20Color%20Emoji%26amp%3Bquot%3B%2C%20%26amp%3Bquot%3BSegoe%20UI%20Emoji%26amp%3Bquot%3B%2C%20%26amp%3Bquot%3BSegoe%20UI%20Symbol%26amp%3Bquot%3B%2C%20%26amp%3Bquot%3BNoto%20Color%20Emoji%26amp%3Bquot%3B%3B%20text-align%3A%20left%3B%20white-space-collapse%3A%20collapse%3B%26quot%3B%26gt%3B%26lt%3Bfont%20style%3D%26quot%3Bcolor%3A%20light-dark(rgb(255%2C%20255%2C%20255)%2C%20rgb(255%2C%20255%2C%20255))%3B%26quot%3B%26gt%3Bvideo.live-cdn.bvccdn-ban-streamcenter%26lt%3B%2Ffont%26gt%3B%26lt%3B%2Fspan%26gt%3B%26lt%3B%2Fdiv%26gt%3B%22%20style%3D%22rounded%3D1%3BwhiteSpace%3Dwrap%3Bhtml%3D1%3B%22%20vertex%3D%221%22%20parent%3D%221%22%3E%3CmxGeometry%20x%3D%221260%22%20y%3D%22960%22%20width%3D%22250%22%20height%3D%2260%22%20as%3D%22geometry%22%2F%3E%3C%2FmxCell%3E%3CmxCell%20id%3D%2221%22%20style%3D%22edgeStyle%3DorthogonalEdgeStyle%3Brounded%3D0%3BorthogonalLoop%3D1%3BjettySize%3Dauto%3Bhtml%3D1%3BentryX%3D-0.02%3BentryY%3D0.617%3BentryDx%3D0%3BentryDy%3D0%3BentryPerimeter%3D0%3B%22%20edge%3D%221%22%20source%3D%225%22%20target%3D%2218%22%20parent%3D%221%22%3E%3CmxGeometry%20relative%3D%221%22%20as%3D%22geometry%22%2F%3E%3C%2FmxCell%3E%3CUserObject%20label%3D%22%26lt%3Bspan%20style%3D%26quot%3Bfont-family%3A%20ui-sans-serif%2C%20system-ui%2C%20sans-serif%2C%20%26amp%3Bquot%3BApple%20Color%20Emoji%26amp%3Bquot%3B%2C%20%26amp%3Bquot%3BSegoe%20UI%20Emoji%26amp%3Bquot%3B%2C%20%26amp%3Bquot%3BSegoe%20UI%20Symbol%26amp%3Bquot%3B%2C%20%26amp%3Bquot%3BNoto%20Color%20Emoji%26amp%3Bquot%3B%3B%20font-size%3A%2014px%3B%20font-style%3A%20normal%3B%20font-variant-ligatures%3A%20normal%3B%20font-variant-caps%3A%20normal%3B%20font-weight%3A%20400%3B%20letter-spacing%3A%20normal%3B%20orphans%3A%202%3B%20text-align%3A%20left%3B%20text-indent%3A%200px%3B%20text-transform%3A%20none%3B%20widows%3A%202%3B%20word-spacing%3A%200px%3B%20-webkit-text-stroke-width%3A%200px%3B%20white-space%3A%20normal%3B%20text-decoration-thickness%3A%20initial%3B%20text-decoration-style%3A%20initial%3B%20text-decoration-color%3A%20initial%3B%20float%3A%20none%3B%20display%3A%20inline%20!important%3B%26quot%3B%26gt%3B%26lt%3Bfont%20style%3D%26quot%3Bcolor%3A%20light-dark(rgb(255%2C%20255%2C%20255)%2C%20rgb(255%2C%20255%2C%20255))%3B%26quot%3B%26gt%3B%2Fmultimedia.lv.lawrencium.v1.LawrenciumService%2FGetIdcIdsByMultiSidInfo%26lt%3B%2Ffont%26gt%3B%26lt%3B%2Fspan%26gt%3B%22%20link%3D%22%26lt%3Bspan%20style%3D%26quot%3Bcolor%3A%20rgb(96%2C%2098%2C%20102)%3B%20font-family%3A%20ui-sans-serif%2C%20system-ui%2C%20sans-serif%2C%20%26amp%3Bquot%3BApple%20Color%20Emoji%26amp%3Bquot%3B%2C%20%26amp%3Bquot%3BSegoe%20UI%20Emoji%26amp%3Bquot%3B%2C%20%26amp%3Bquot%3BSegoe%20UI%20Symbol%26amp%3Bquot%3B%2C%20%26amp%3Bquot%3BNoto%20Color%20Emoji%26amp%3Bquot%3B%3B%20font-size%3A%2014px%3B%20font-style%3A%20normal%3B%20font-variant-ligatures%3A%20normal%3B%20font-variant-caps%3A%20normal%3B%20font-weight%3A%20400%3B%20letter-spacing%3A%20normal%3B%20orphans%3A%202%3B%20text-align%3A%20left%3B%20text-indent%3A%200px%3B%20text-transform%3A%20none%3B%20widows%3A%202%3B%20word-spacing%3A%200px%3B%20-webkit-text-stroke-width%3A%200px%3B%20white-space%3A%20normal%3B%20background-color%3A%20rgb(240%2C%20246%2C%20253)%3B%20text-decoration-thickness%3A%20initial%3B%20text-decoration-style%3A%20initial%3B%20text-decoration-color%3A%20initial%3B%20display%3A%20inline%20!important%3B%20float%3A%20none%3B%26quot%3B%26gt%3B%2Fmultimedia.lv.lawrencium.v1.LawrenciumService%2FGetIdcIdsByMultiSidInfo%26lt%3B%2Fspan%26gt%3B%22%20id%3D%2222%22%3E%3CmxCell%20style%3D%22text%3BwhiteSpace%3Dwrap%3Bhtml%3D1%3B%22%20vertex%3D%221%22%20parent%3D%221%22%3E%3CmxGeometry%20x%3D%22730%22%20y%3D%22870%22%20width%3D%22500%22%20height%3D%2240%22%20as%3D%22geometry%22%2F%3E%3C%2FmxCell%3E%3C%2FUserObject%3E%3CmxCell%20id%3D%2223%22%20value%3D%22%26lt%3Bspan%26gt%3B%26lt%3Bspan%26gt%3B%26lt%3Bspan%26gt%3B%26lt%3Bspan%26gt%3B%26lt%3Bfont%20style%3D%26quot%3Bcolor%3A%20light-dark(rgb(255%2C%20255%2C%20255)%2C%20rgb(255%2C%20255%2C%20255))%3B%26quot%3B%26gt%3B%26lt%3Bspan%20style%3D%26quot%3Bbox-sizing%3A%20border-box%3B%20border%3A%200px%20solid%3B%20margin%3A%200px%200px%200px%205px%3B%20padding%3A%200px%3B%20font-family%3A%20ui-sans-serif%2C%20system-ui%2C%20sans-serif%2C%20%26amp%3Bquot%3BApple%20Color%20Emoji%26amp%3Bquot%3B%2C%20%26amp%3Bquot%3BSegoe%20UI%20Emoji%26amp%3Bquot%3B%2C%20%26amp%3Bquot%3BSegoe%20UI%20Symbol%26amp%3Bquot%3B%2C%20%26amp%3Bquot%3BNoto%20Color%20Emoji%26amp%3Bquot%3B%3B%20font-size%3A%2014px%3B%20text-align%3A%20left%3B%20text-wrap-mode%3A%20wrap%3B%26quot%3B%20data-v-6d79ae31%3D%26quot%3B%26quot%3B%26gt%3B%2FstreamCenter.service.v1.StreamCenter%2FGetStreams%26lt%3B%2Fspan%26gt%3B%26lt%3Bspan%20style%3D%26quot%3Bbox-sizing%3A%20border-box%3B%20border%3A%201px%20solid%20rgb(225%2C%20243%2C%20216)%3B%20margin%3A%200px%200px%200px%2020px%3B%20padding%3A%200px%209px%3B%20align-items%3A%20center%3B%20border-radius%3A%204px%3B%20display%3A%20inline-flex%3B%20height%3A%2024px%3B%20justify-content%3A%20center%3B%20vertical-align%3A%20middle%3B%20font-family%3A%20ui-sans-serif%2C%20system-ui%2C%20sans-serif%2C%20%26amp%3Bquot%3BApple%20Color%20Emoji%26amp%3Bquot%3B%2C%20%26amp%3Bquot%3BSegoe%20UI%20Emoji%26amp%3Bquot%3B%2C%20%26amp%3Bquot%3BSegoe%20UI%20Symbol%26amp%3Bquot%3B%2C%20%26amp%3Bquot%3BNoto%20Color%20Emoji%26amp%3Bquot%3B%3B%20text-align%3A%20left%3B%20--el-tag-font-size%3A%2012px%3B%20--el-tag-border-radius%3A%204px%3B%20--el-tag-border-radius-rounded%3A%209999px%3B%20line-height%3A%201%3B%20--el-icon-size%3A%2014px%3B%20--el-tag-bg-color%3A%20rgb(239.8%2C248.9%2C235.3)%3B%20--el-tag-border-color%3A%20rgb(224.6%2C242.8%2C215.6)%3B%20--el-tag-hover-color%3A%20%2367c23a%3B%20--el-tag-text-color%3A%20%2367c23a%3B%26quot%3B%20class%3D%26quot%3Bel-tag%20el-tag--success%20el-tag--light%26quot%3B%20data-v-6d79ae31%3D%26quot%3B%26quot%3B%26gt%3B%26lt%3B%2Fspan%26gt%3B%26lt%3B%2Ffont%26gt%3B%26lt%3B%2Fspan%26gt%3B%26lt%3B%2Fspan%26gt%3B%26lt%3B%2Fspan%26gt%3B%26lt%3B%2Fspan%26gt%3B%26lt%3Bdiv%26gt%3B%26lt%3Bbr%26gt%3B%26lt%3B%2Fdiv%26gt%3B%22%20style%3D%22text%3Bhtml%3D1%3Balign%3Dcenter%3BverticalAlign%3Dmiddle%3Bresizable%3D0%3Bpoints%3D%5B%5D%3Bautosize%3D1%3BstrokeColor%3Dnone%3BfillColor%3Dnone%3B%22%20vertex%3D%221%22%20parent%3D%221%22%3E%3CmxGeometry%20x%3D%221200%22%20y%3D%22880%22%20width%3D%22400%22%20height%3D%2250%22%20as%3D%22geometry%22%2F%3E%3C%2FmxCell%3E%3CUserObject%20label%3D%22%26lt%3Bspan%20style%3D%26quot%3Bfont-family%3A%20ui-sans-serif%2C%20system-ui%2C%20sans-serif%2C%20%26amp%3Bquot%3BApple%20Color%20Emoji%26amp%3Bquot%3B%2C%20%26amp%3Bquot%3BSegoe%20UI%20Emoji%26amp%3Bquot%3B%2C%20%26amp%3Bquot%3BSegoe%20UI%20Symbol%26amp%3Bquot%3B%2C%20%26amp%3Bquot%3BNoto%20Color%20Emoji%26amp%3Bquot%3B%3B%20font-size%3A%2014px%3B%20font-style%3A%20normal%3B%20font-variant-ligatures%3A%20normal%3B%20font-variant-caps%3A%20normal%3B%20font-weight%3A%20400%3B%20letter-spacing%3A%20normal%3B%20orphans%3A%202%3B%20text-align%3A%20left%3B%20text-indent%3A%200px%3B%20text-transform%3A%20none%3B%20widows%3A%202%3B%20word-spacing%3A%200px%3B%20-webkit-text-stroke-width%3A%200px%3B%20white-space%3A%20normal%3B%20text-decoration-thickness%3A%20initial%3B%20text-decoration-style%3A%20initial%3B%20text-decoration-color%3A%20initial%3B%20float%3A%20none%3B%20display%3A%20inline%20!important%3B%26quot%3B%26gt%3B%26lt%3Bfont%20style%3D%26quot%3Bcolor%3A%20light-dark(rgb(255%2C%20255%2C%20255)%2C%20rgb(255%2C%20255%2C%20255))%3B%26quot%3B%26gt%3B%2Finfra.mg.playurl_v3.v1.LiveResSched%2FGetBatchPlayurl%26lt%3B%2Ffont%26gt%3B%26lt%3B%2Fspan%26gt%3B%22%20link%3D%22%26lt%3Bspan%20style%3D%26quot%3Bcolor%3A%20rgb(96%2C%2098%2C%20102)%3B%20font-family%3A%20ui-sans-serif%2C%20system-ui%2C%20sans-serif%2C%20%26amp%3Bquot%3BApple%20Color%20Emoji%26amp%3Bquot%3B%2C%20%26amp%3Bquot%3BSegoe%20UI%20Emoji%26amp%3Bquot%3B%2C%20%26amp%3Bquot%3BSegoe%20UI%20Symbol%26amp%3Bquot%3B%2C%20%26amp%3Bquot%3BNoto%20Color%20Emoji%26amp%3Bquot%3B%3B%20font-size%3A%2014px%3B%20font-style%3A%20normal%3B%20font-variant-ligatures%3A%20normal%3B%20font-variant-caps%3A%20normal%3B%20font-weight%3A%20400%3B%20letter-spacing%3A%20normal%3B%20orphans%3A%202%3B%20text-align%3A%20left%3B%20text-indent%3A%200px%3B%20text-transform%3A%20none%3B%20widows%3A%202%3B%20word-spacing%3A%200px%3B%20-webkit-text-stroke-width%3A%200px%3B%20white-space%3A%20normal%3B%20background-color%3A%20rgb(245%2C%20247%2C%20250)%3B%20text-decoration-thickness%3A%20initial%3B%20text-decoration-style%3A%20initial%3B%20text-decoration-color%3A%20initial%3B%20display%3A%20inline%20!important%3B%20float%3A%20none%3B%26quot%3B%26gt%3B%2Finfra.mg.playurl_v3.v1.LiveResSched%2FGetBatchPlayurl%26lt%3B%2Fspan%26gt%3B%22%20id%3D%2224%22%3E%3CmxCell%20style%3D%22text%3BwhiteSpace%3Dwrap%3Bhtml%3D1%3B%22%20vertex%3D%221%22%20parent%3D%221%22%3E%3CmxGeometry%20x%3D%22570%22%20y%3D%22815%22%20width%3D%22380%22%20height%3D%2240%22%20as%3D%22geometry%22%2F%3E%3C%2FmxCell%3E%3C%2FUserObject%3E%3CmxCell%20id%3D%2225%22%20value%3D%22pu%22%20style%3D%22text%3Bhtml%3D1%3Balign%3Dcenter%3BverticalAlign%3Dmiddle%3Bresizable%3D0%3Bpoints%3D%5B%5D%3Bautosize%3D1%3BstrokeColor%3Dnone%3BfillColor%3Dnone%3B%22%20vertex%3D%221%22%20parent%3D%221%22%3E%3CmxGeometry%20x%3D%22210%22%20y%3D%22758%22%20width%3D%2240%22%20height%3D%2230%22%20as%3D%22geometry%22%2F%3E%3C%2FmxCell%3E%3CmxCell%20id%3D%2226%22%20value%3D%22CDN%E8%B0%83%E5%BA%A6%22%20style%3D%22text%3Bhtml%3D1%3Balign%3Dcenter%3BverticalAlign%3Dmiddle%3Bresizable%3D0%3Bpoints%3D%5B%5D%3Bautosize%3D1%3BstrokeColor%3Dnone%3BfillColor%3Dnone%3B%22%20vertex%3D%221%22%20parent%3D%221%22%3E%3CmxGeometry%20x%3D%221220%22%20y%3D%22728%22%20width%3D%2270%22%20height%3D%2230%22%20as%3D%22geometry%22%2F%3E%3C%2FmxCell%3E%3C%2Froot%3E%3C%2FmxGraphModel%3E&lt;/span&gt;" style="text;html=1;align=center;verticalAlign=middle;resizable=0;points=[];autosize=1;strokeColor=none;fillColor=none;" parent="u2H28mPYu0D7wQaLzCzU-31" vertex="1">
          <mxGeometry x="430" width="20" height="30" as="geometry" />
        </mxCell>
        <mxCell id="u2H28mPYu0D7wQaLzCzU-27" value="流媒体pu" style="text;html=1;align=center;verticalAlign=middle;resizable=0;points=[];autosize=1;strokeColor=none;fillColor=none;" parent="u2H28mPYu0D7wQaLzCzU-31" vertex="1">
          <mxGeometry x="460" y="7" width="70" height="30" as="geometry" />
        </mxCell>
        <mxCell id="AtMEkBX1mOlD4fzGIt9X-3" value="" style="shape=image;verticalLabelPosition=bottom;labelBackgroundColor=default;verticalAlign=top;aspect=fixed;imageAspect=0;image=data:image/png,iVBORw0KGgoAAAANSUhEUgAAAD4AAAA8CAYAAAA+CQlPAAAMP2lDQ1BJQ0MgUHJvZmlsZQAASImVVwdYU8kWnluSkEBoAQSkhN4EESkBpITQAkjvohKSAKHEmBBE7GVRwbWLBWzoqoiClWZH7CyKvS8WFJR1sWBX3qSArvvK9+b75t7//nPmP2fOnblzBwCNExyRKA/VBCBfWCCODQmgJ6ek0kk9gABMAAIA0OZwJSJmdHQExGDw/vfy7obcElx1lGn9s/2/Fi0eX8IFAImGOIMn4eZDfBAAvJIrEhcAQJTxFlMKRDIMK9ARwwAhXijDWQpcKcMZCrxXbhMfy4K4FQAVNQ5HnAWA+mXI0wu5WVBDvQ9iZyFPIARAgw6xb37+JB7E6RDbQhsRxDJ9RsYPOll/08wY0uRwsoawYizyohIokIjyOFP/z3T875KfJx30YQ2rWrY4NFY2Zpi3W7mTwmVYDeJeYUZkFMTaEH8Q8OT2EKOUbGlogsIeNeJKWDBnQA9iZx4nMBxiI4iDhXmREUo+I1MQzIYYzhC0SFDAjodYH+KFfElQnNJms3hSrNIXWp8pZjGV/DmOWO5X5uuBNDeBqdR/nc1nK/Ux9eLs+CSIKRBbFgoSIyFWh9hJkhsXrrQZU5zNihy0EUtjZfFbQhzLF4YEKPSxwkxxcKzSvjRfMjhebHO2gB2pxPsLsuNDFfnBWrkcefxwLNhlvpCZMKjDlyRHDI6Fxw8MUowd6+YLE+KUOh9EBQGxir44RZQXrbTHzfl5ITLeHGJXSWGcsi+eWAAnpEIfzxQVRMcr4sSLczhh0Yp48GUgArBAIKADKawZYBLIAYL23oZe+KRoCQYcIAZZgA8clcxgjyR5ixBe40Ax+BMiPpAM9QuQt/JBIeS/DrGKqyPIlLcWynvkgqcQ54NwkAefpfJewiFvieAJZAT/8M6BlQvjzYNV1v7v+UH2O8OETISSkQ56pGsMWhKDiIHEUGIw0Q43xH1xbzwCXv1hdcEZuOfgOL7bE54SOgiPCNcJnYTbEwVzxT9FORZ0Qv1gZS4yfswFbg013fAA3AeqQ2VcDzcEjrgr9MPE/aBnN8iylHHLskL/SftvI/jhbSjtyM5klDyM7E+2/bmnur2625CKLNc/5kcRa8ZQvllDLT/7Z/2QfR68h/9siS3EDmBnsZPYeewI1gDo2HGsEWvDjsrw0Ox6Ip9dg95i5fHkQh3BP/wNvllZJiXONc49zl8UbQX8Itk3GrAmiaaKBVnZBXQm3BH4dLaQ6zSC7uLs4gaAbH9RfL7exMj3DUSv7Ts37w8AfI4PDAwc/s6FHQdgnwdc/k3fOVsG3DpUATjXxJWKCxUcLrsQ4FdCA640A7h/WQBbOB4X4A68gT8IAmEgCsSDFDABRp8N57kYTAHTwRxQAsrAMrAarAebwFawE+wB+0EDOAJOgjPgIrgMroO7cPZ0gRegD7wDnxEEISFUhIYYIKaIFeKAuCAMxBcJQiKQWCQFSUeyECEiRaYj85AyZAWyHtmCVCP7kCbkJHIe6UBuIw+RHuQ18gnFUDVUBzVGrdGRKANlouFoPDoezUIno8XofHQJuhatQnej9ehJ9CJ6He1EX6D9GMBUMT3MDHPEGBgLi8JSsUxMjM3ESrFyrAqrxZrhe76KdWK92EeciNNwOu4IZ3AonoBz8cn4THwxvh7fidfjrfhV/CHeh38jUAlGBAeCF4FNSCZkEaYQSgjlhO2EQ4TTcC11Ed4RiUQ9og3RA67FFGIOcRpxMXEDsY54gthBfEzsJ5FIBiQHkg8pisQhFZBKSOtIu0nHSVdIXaQPKqoqpiouKsEqqSpClbkq5Sq7VI6pXFF5pvKZrEm2InuRo8g88lTyUvI2cjP5ErmL/JmiRbGh+FDiKTmUOZS1lFrKaco9yhtVVVVzVU/VGFWB6mzVtap7Vc+pPlT9qKatZq/GUktTk6otUduhdkLtttobKpVqTfWnplILqEuo1dRT1AfUD+o0dSd1tjpPfZZ6hXq9+hX1lxpkDSsNpsYEjWKNco0DGpc0ejXJmtaaLE2O5kzNCs0mzZua/Vo0rVFaUVr5Wou1dmmd1+rWJmlbawdp87Tna2/VPqX9mIbRLGgsGpc2j7aNdprWpUPUsdFh6+TolOns0WnX6dPV1nXVTdQt0q3QParbqYfpWeux9fL0lurt17uh92mY8TDmMP6wRcNqh10Z9l5/uL6/Pl+/VL9O/7r+JwO6QZBBrsFygwaD+4a4ob1hjOEUw42Gpw17h+sM9x7OHV46fP/wO0aokb1RrNE0o61GbUb9xibGIcYi43XGp4x7TfRM/E1yTFaZHDPpMaWZ+poKTFeZHjd9TtelM+l59LX0VnqfmZFZqJnUbItZu9lncxvzBPO55nXm9y0oFgyLTItVFi0WfZamlmMtp1vWWN6xIlsxrLKt1lidtXpvbWOdZL3AusG620bfhm1TbFNjc8+WautnO9m2yvaaHdGOYZdrt8Husj1q72afbV9hf8kBdXB3EDhscOgYQRjhOUI4omrETUc1R6ZjoWON40MnPacIp7lODU4vR1qOTB25fOTZkd+c3ZzznLc53x2lPSps1NxRzaNeu9i7cF0qXK6Npo4OHj1rdOPoV64OrnzXja633GhuY90WuLW4fXX3cBe717r3eFh6pHtUetxk6DCiGYsZ5zwJngGeszyPeH70cvcq8Nrv9Ze3o3eu9y7v7jE2Y/hjto157GPuw/HZ4tPpS/dN993s2+ln5sfxq/J75G/hz/Pf7v+MacfMYe5mvgxwDhAHHAp4z/JizWCdCMQCQwJLA9uDtIMSgtYHPQg2D84KrgnuC3ELmRZyIpQQGh66PPQm25jNZVez+8I8wmaEtYarhceFrw9/FGEfIY5oHouODRu7cuy9SKtIYWRDFIhiR62Muh9tEz05+nAMMSY6piLmaeyo2OmxZ+NocRPjdsW9iw+IXxp/N8E2QZrQkqiRmJZYnfg+KTBpRVJn8sjkGckXUwxTBCmNqaTUxNTtqf3jgsatHteV5pZWknZjvM34ovHnJxhOyJtwdKLGRM7EA+mE9KT0XelfOFGcKk5/BjujMqOPy+Ku4b7g+fNW8Xr4PvwV/GeZPpkrMruzfLJWZvVk+2WXZ/cKWIL1glc5oTmbct7nRuXuyB3IS8qry1fJT89vEmoLc4Wtk0wmFU3qEDmISkSdk70mr57cJw4Xb5cgkvGSxgId+CPfJrWV/iJ9WOhbWFH4YUrilANFWkXCorap9lMXTX1WHFz82zR8Gnday3Sz6XOmP5zBnLFlJjIzY2bLLItZ82d1zQ6ZvXMOZU7unN/nOs9dMfftvKR5zfON58+e//iXkF9qStRLxCU3F3gv2LQQXyhY2L5o9KJ1i76V8kovlDmXlZd9WcxdfOHXUb+u/XVgSeaS9qXuSzcuIy4TLrux3G/5zhVaK4pXPF45dmX9Kvqq0lVvV09cfb7ctXzTGsoa6ZrOtRFrG9dZrlu27sv67PXXKwIq6iqNKhdVvt/A23Blo//G2k3Gm8o2fdos2HxrS8iW+irrqvKtxK2FW59uS9x29jfGb9XbDbeXbf+6Q7ijc2fsztZqj+rqXUa7ltagNdKant1puy/vCdzTWOtYu6VOr65sL9gr3ft8X/q+G/vD97ccYByoPWh1sPIQ7VBpPVI/tb6vIbuhszGlsaMprKml2bv50GGnwzuOmB2pOKp7dOkxyrH5xwaOFx/vPyE60Xsy6+Tjloktd08ln7rWGtPafjr89LkzwWdOnWWePX7O59yR817nmy4wLjRcdL9Y3+bWduh3t98Ptbu311/yuNR42fNyc8eYjmNX/K6cvBp49cw19rWL1yOvd9xIuHHrZtrNzlu8W923826/ulN45/Pd2fcI90rva94vf2D0oOoPuz/qOt07jz4MfNj2KO7R3cfcxy+eSJ586Zr/lPq0/Jnps+pul+4jPcE9l5+Pe971QvTic2/Jn1p/Vr60fXnwL/+/2vqS+7peiV8NvF78xuDNjreub1v6o/sfvMt/9/l96QeDDzs/Mj6e/ZT06dnnKV9IX9Z+tfva/C38272B/IEBEUfMkf8KYLCimZkAvN4BADUFABo8n1HGKc5/8oIozqxyBP4TVpwR5cUdgFr4/x7TC/9ubgKwdxs8fkF9jTQAoqkAxHsCdPTooTp4VpOfK2WFCM8BmyO/ZuRngH9TFGfOH+L++Q5kqq7g5/u/APEjfEKALSgGAAAAbGVYSWZNTQAqAAAACAAEARoABQAAAAEAAAA+ARsABQAAAAEAAABGASgAAwAAAAEAAgAAh2kABAAAAAEAAABOAAAAAAAAAJAAAAABAAAAkAAAAAEAAqACAAQAAAABAAAAPqADAAQAAAABAAAAPAAAAAA1yZCdAAAACXBIWXMAABYlAAAWJQFJUiTwAAAae0lEQVRoBZ1beYzcV33/zH3t7H3ajh0fWSdrnDgkqeOaFAS40KiEo1CCFNRWvYTaoHJUVAgQEqhIVC3iL1QEVUshnElDWxoSkjSUYhJjjB1IfIf1sXa8sXd3dnZn555+Pt/33szsxm7Uvp3fvOv7vtf7vu/7vvebjZRKKy2An6umyFVbO42doc1qBeWjR1A58lPUTh9H4/IsmpUKUTeBCPGIhPKroWwJj+MhEo0ikkojPjKK5A03IbXzdqRuvBmRRJIICCMcbSRuTIefVy6dn7mA9//FhxFZLpVaV+Olg/xqyMSoeG2iubyE8rMHsfzow6jNnKWcYibC7pZnzwvrBQt4TRdsi5ggXTTEjKFgwSstef1W5H7zrUhN3YJYLg9QOf//FMGDDz2MSImCXx3J1dXhJUaz2cTyDx9F6anvU+BzaDXqlIkMtQUMInZhD0J1NblioOVZ6VKGKUYKiMaQ2LAJuTf+NrJ7X+8U1gX3MpTXaBB7S0tL1xI8MNI9miPcB9Xpkyh88x9QOfZLB2D8dklFhlo2m+oO7S/HGVllGYbe8HUg/Vhr8K3NBlI334a+d/4ekhs3O/r/RwXEYrGO4Ma7Z9Nhc4x4crS6ps1q8Yl/x9K/fRuNpaID00ASNuNmuWO6MnaXAo7VNuAWQ+jzaPwIZeqxVmZCHNqUtxDL96L3re9B9rVvQkSCdJm/HyXAa6bI8vK1TD2MIYMkLEELD30VpScf8QJxfZKCcxDkyqhpXTtRwowbz+0Z0QDibddV5qM2JTfUw4SGDs5VsFGqutFE/k33IH/PvVz7PR5vQGIYr/ol3/QKgjuh6wtzmPvi51B57jAFJWJJo2RMe0JW9kxKI20ufb8NWPPFrog0x48U5VJQHWvtoQHfmvFuINI7X43BP3o/on0D3uLaA9cO8HXyea0ZN0MlM7WFeVz5wt+g+vyzdDDiUGP51T1r10Av8t0st8uvMLYNZ3i9Isy82BDGOlMyCO0kqR23YPhPP4RYX7+H+d+Ev4bgElprusGt6jKFrhw5SGT02GslMbJsJqfG7MtohQb1MlmVX4FpG2Rf10LtxnUGs+RxOWSuX3iJM73zNgy978M0+5zjtxvGQba/r7IhEjGRNBsNzP/LAx2hxWygybJZs7WZmgxhAFFusO2Cp8ddyYRWNfTJ1Fk2U3ekrdzutkIXvMYqOQZY8INoCYonCt/9hvHueA0M24hVX/FVNUKLTpOLv/DE97D8yMMuWODsuyQimjg6FiMsnrWulayDWbvm2rB6bzfQAC6z9UGKaw90hIPK57eVxJRrcmD6ZpORVLuSAifiWyLPsbEJ9L7+bjaSU+sPQAZpX6tmXPjl8VbOnkHxoQec0GoMyRdtjtkeHFKAMFCHRIj0sTwMd9yLCT7kSCqTszR89i1Z1G8DrWRju/k2pB4j281gNEJljeO2Vnz466hdPEejCJx5+K6sPeOOeBNV6vnpXzyCjYsFxOXMlMJ4VtViVX2RaQ/RBgmgZgnackhce2yLS6dZr5vvUBRmA5usk+NIJIYW2wy3thr+iR/DvpaA+Olus0FdbepcuYzZr38FEx/6KKKi76ZdI9vJC052CdCgSR+5dBgPJY/jXQNJbJyvGqAGrlKewI2g6bjNRxurChwjPwEGF4nRCaRvmEJm6ySSY+OIZd2e26ouoVm9hFb5V4wTnmfcz9C3WaWiqBgRDAIGBYe64Xc0VjOmDiYNjf8Uzfn9iPTvsSYnvDHNegRxzYj+tK5Xait44sxTjMNb+Mlto1j/yBlEE5wNL3Xw3oaJyEOyYmBKFWlYoeX2V2Hs3j9A7oYbKSw9LZXQZNChbiWTjbtFJMrV3Fzm5ywqZ76F2uyPiEMWYMgccMDPPBRXd5i81mfsktnWBUaYuZsRj+fMojoDW+CME0DCU9ijV47jXOGc4TuzKY/nru/BznOlNiW3/lw1yL2aCQlDpKPjGH3372PgrjcgmkxJRP5FsLDUwpViCysV1YF0IoKBfBNDvREuzR5E81PI7vgYauNPo/Krr9AKTlNJckOEbhPykrfrxu5qEMPOIaUzaBSfRZOzLpO35LVupi5mK7Uy/vPsD2nuNUesVseBO8awZeYFZJthLWswmRZR+zJ6DqG+qbzE5E3Y9IGPIbPhOjZEUOGh7fhMHY8fruDYuTqKK4wPgvMmRD4TwebxON64K4VbNieQScSRGN6LWO9NKJ/4POov7Seajg9eK6/IWgod0hGFc3I2EJn9VzTyt7ItzYdLyKfIYnGpVW/UcPSl4/jCkb83SUw3HCkEv/GjC7jzeAHNmCNuMofBfkuTgFJyetft2PShjyPZP8hqBKcuNvCdHy/j8At11Bo8WBBF22EZgxzGvMG+KB3h9g1x/M7ejCkgJlNtrFD4z6F26cnVwgchQx6kUW7MuzwU61s/gXjfTq40XmbYGFqYdssaBf85nVqDzsgB+29ydeCOUVxOSTAywqfpcwHKI2uL1zJpbdiI9fd/BEnGy/LLB09V8elvFnDodN1mWIJxqI1vUlDhaXCcck0oMeDY+Ro++2ARjx4qkyeqKJahU7yfsz9l9LvlW1V27ApJO7WL9DWRhWfsZKmtOsBEG+woVUo4vXCaoYY46HSK0+VsDE/vGkaD7WLOuGe7/TFXamaz2PD+v0KWa7tFKZ4+XsXfPVzEEs1aFxZ2U8NcQhI7Hyew1dXWfoBqvYUv/2AZ3ztYRp1LjOdPpG/8ACLJAY7snmKV/WPr1veFzOfaOiPF59Golyga151PUcXkl5Yu4crKnOExUUwgExPRWhMnJvtxKefWh/rt8YpoUXH5u16Pfq5tpdlCA196dAnVqgSyZW+5ULpxxKuyKiH5ulmUrIfPA08t47mzNfIU4Y6wGYn1b+Egbo9Ma8cGNK6TEpsiOq0RbpmN0gVTsGgIQVQzcmr+V9R0lXXOhQjrT1wTQD6smohi/63DaFWpMT/QpCDuSCyOsX1vsb23xhn68mPLuLzYoIVwrB79hbIJRRQ22LVr63S21IGTBZSp8C9SgYu8LmAVifE388KRJ6/uxPZVKQis9q6+SLPM+6ajTiazOa5xCTy9ME3kMkkHrSyMsyZ+nb6hH0fXZdpCiGCLkViWZ+Hc9imDf+5sFc+crNhdoOlNMB6X8LnHCaL+bph2mXAqy1LPzNbxzAkyzUo0NYLYyG8QiRbLmiTEa1K7SQUyEeHW2GxwcjnR4iRaqq6YqVtk44EMuSlCynCPuDnw6hFUOMjAWJdz66OZ21hyd+BExYIf4RZUZ+2+QtmkDjAS3JU1gT85VqE1Ch+jLQkeSZBxdrQlc1V+dxc8T65V3jNa4Z5eW/LyUPClyjIWKwWiko4dNhFxOleuJEItvDSWxdGJNOgRrTWaSqFnaqeN0n5ta5I9Ypwf97BuZeU2SnXXr2ro87K3+2xe2HjyQt3MXlFcNLuRcvdxlONLYy1pPephCm0ud21a89HaIsNjJzihJHgR1RadiBjVTBknYsw91q6ykBLP/j0TKMRcPcqYO97bRzYUANFJLnA7DLCWc+bMMgivnI8pxUao7OhpTJhlo2MCuP6F5QYuzZsa6KAZBSZ6JZ/xEyzNGiQjB7s2a/Ff7DDFlNGqFciD8yjRlWqZ+6n2b40S2TWp3cQC6Rf7knhmasARTqcQjSvqpeD04iWGokEYY5VDNFxt1s6yKVfU1GfKcTBGVTyqzR61t1CnI79SlEIJociLcbeS5GwnL/TqxnavAUe4I7S4pZkQxBWtacGTGxsbmBEV/4h4NyNRBh/HpgZxmUutsyRUJkppsz3UjzP6hsUpgJDmyQkYZtnlGu8U1LYS4tL8kGRXcsdXk8bTand6OPmeNarhnBI5ZTUGiZPLVcy6mTIEGmwI2RYweoSqCmepJ4H9OwfQKNPViVuqLR7jE2ck5wXSEM2yCAmCmdFxua+zXSlYSdhZRMNZiFNtTzqcFchrgyYbplbyKXXxt6rsetnvokYzczFAIF4R8FgoSoEjNtoMs1s3GCobZl9WPUKuju8YxMlMDdUSIyI6j0wygv4cLxwEHWBZdkK5to5S/GxTI+rXIPVppsw2WGfV+tLEO9HvgyddXNAzS9Ea5r5UUHJasHbX4Np8Q4sxRlORqR8Ujevcq9DQNxgcqx61caA2E9ihcqBU2dM3pLB4fpqtQJKmv4WnLBOadTHeVoCEMij3pT5rULv1uV4TmsoI44Rk3WAU+aybsUZ5Hrzv9oOFywnbydV2tURFN3mvAFufRjuaoqeMtjhTngkR0+Myz64qTAbDKdKfvNSF8QwOvHDA+mjp2D2ZtIOHBrsZ9GMcSre2NV74Az7l1uZm3S0LR0OHmN2TKTu3a0uqLDxLU5eD8vyw1O3FxaYWRVCHB7N6vc5LkCgDMN8ZTfKolmwlyYxUbdxYLuZUdwpR7vuYWRLzqTgerR3FQnHOnNAdtIB1gzFzRoI34QncMXFDaSYsvHJcLmT1sJ4e5TWYHNf2a1+VNh6aDQYyLz7ZtfE4CYwvz5IyY7MjOlsIR9EqdW6FsbRBSq3RZCKF/lifMeCGCda5DwF49MxVU2LuqUm3s40C9k8/w5csvE3hGn/f3b0sSwJ+JFyYYZadEl0u4cz7ejjr87Ds0AfveW0PNo7EbVZXrvD1VeF57kNa737aVOoUV7Ubs8QhRLr7W4mOcOvVjws0gAFNgvvwUJoHEEZjItb9GPMEUxIOJRO6DddEjJQfO/Y4FpYXbJbu2JbC2+7M2SFFyITPjVuD22nGrMEX22bIkyn2ThHP7qzNcKNeRmn6QVOuw6bvVRJ3GGz3sF8gtG29uq8lxk1wd5Ul/fECcH1+HKgHRKSq6SA3+guacOtQ7aHHCaWWc4vn8I1nvkVQKaKFP9zXi3vIdF0LlsmZPDVvinB5x/w77SKn25hf45L5y7f3IcU7OfHw4vT30Zo/4tazsRl4VS7H53K3ujXGJxbkAyplevSe63gD5HYH9fISNY7BniGkGjQDP0MaaDPFgnIrCzqUDUANLsV4p/T4ySfwvZ//h63bJPH/2d19+JM390J7cF1TyE9gV6MMbygwr1PgRLyFd74mh0/cO8BxzuE+P/00iqf+EQl6T5l1wOFEFQKXxFK7FPjzebGcYcBHU9d7dLu/Y8yRiCfQm+3FUHwIM/UZxOKr11BAZ5zaggokAgusiyFGrv984GtIRBPYd8s+voyI4t67esw5ffWpJTz1ixW7kQnvKAJeKSBFne++MYP3vq4H29cnzWpkPT+fPowThz6PffkyD1gS3NHUd/BCbpaDLwpYnYLEaa1cRym6Afk0fU8s4XAQQTzOSi6Tw6a+TZi+NM37LV28BuE6iJyqQ7sj7Xo9G2SsEa/jiz/+EmaLs3j77e9AD/HKy3/kHf24j0KdmKnxjF2jP5A/b6E3w2U2HMfkugSuH42313CtXsOjzz6Oxw/9E+7fUOAlIZ0RFRmme5XQZEnC27IUQzR7F3ipEkHhSgWNkW1IpHJUHvdxU56iTNp9NpPFxqHrkH8xjzIdidb9qmSydSEnmW7RjQQFF3PNRBPfOfQgDk8fwXvvug9TG6ZowglMDESxboBH2qi2J4ddPCjilcNUucHIbHr2DB7Y/3UcOvtT3L+lTkvk1ZOZuZvbQNfVOlPk6kTsPkagztmeq/YjNbiVgmdJWzsEI1X2xrXg04k0L/YHcEPfNhwuHkasxwku/gQkZLYZKlMSl2yzPlbNtwhGk0JGE5kETi2cwqe++2nsWLcDu7fsxo7rpjDWN0qHlaYgCh0ldJPH2SrmluZwbOYYDpw6gMMzR7DMIGXPMHBzTgqhSKLnPjbO6HrinQMlGRAPave8FebqqA/vQl/PAGKJDGeccoU1Lg0kub/l+fuxLSObcYxvU2RqWuuGW9OjhSkTMpxkxtNwlETLWYMxSZkYHVLDce6fLRy5eAQHpw8izeBhtHcME33jXG89NkaXIJcWZ/m8iOXaMhLJOOJ88sko7hmt6TVPe7bdPLFByaQ17liRtEqOOyc035Uv13GllENq0zakUnmub92pO4ULmj4oSnsnsUwew31D2D44iYNXDiIzwD1UmlaSKSrj41qc5KFN78odKBUgWMPP44/aqbSY3r9xb7uwPMOt76yFqEIk/DHSl7dNJ7kMaNJa/W8bb2KTYg0CCUbBkSfsmDATU79PQXblfKTw2QtLqA29Dr35EU4CX0+ZYxNjmiQJTi61zkV4oHcIk2OTOLNwFnOlOaRyeu/FREgBi7gMIKxJp47QLwipgt+yEFMGicgCuI71qlhngnjLLyOCm7IESh6szHGb0028oZ+dHCNF2B/bRdeSkWDFPuQgtLsmw7Pw0goWYxuQHt+BdHYQsWTG1rebEYeTypTW4zxdJbmt5THE1z+7Jm7hCzfurbpIc7I4wUndvKe1SXNdVI1zsiahxa7qLEsJUa7paJzC8Zpab1+jXEYxbvayBC0pCah+4Xv7KN+ycivTm5fwZ0IHyZV7survTqK5OF/D7Bzxrd+DfO8wkrRkvTrSezPjyY+h4GSGs5Gg8Jl0FkM09/XD63HTwE1YKazwZtJfS4ktEeRjWiZNkRWz1sxOF84KQD1ky4SnwEEBUoLK3sdEKDA3bda5G3DE3oEmbvMOTeatP5dEgeUgvG9VFnhS90qxThNfRm34VuS5S6VzQ/QZXLK2jTkzDxjJB5mR8IzgzMkxmBkdGMXU+ilszW3GynwJTV4kigknosnujpKBAckqykwmrLjxFJRZUUowRRCSinbad/DUBfrjTfzuKFc416d4CuMNaXtNC1N4WAxkCF+m0BfPFXk7dCOyG16NbH6Ua1tOLUFlc7ZJ08ZqOJNqZCJKxfOXCwSytc6tbWxwFLds2IXh2BBWFig8b/2MITe/HEWq/IRZsGMtG2zWhVR9TFKX5RKGqc22CUclsEER7b4hvifnvAcFhvE26GpfHr8QlJdquEChl6P85cXGPejpG+HaHuBsc22bN5dfISHjwfFhglP/5l21p2vWFckN949g3fA67Ln+1yn8MEqc+XqFbx5tcOBE1IWIeXtWuvt0AHEgwSEauOdBqHTA2JKp426a+SsKK9TCJ4tSTmTFuQpmzvAFZWQMiW1vRH5wHTKMy+OM1HQM1d7tZltSuiTL5VYpLuSfnZNL8M68SbPT9tYYaPCEVcee1p08c+/H5fnLSOUzSGQZ+llyM9ylyK52X+zKwhI1eK+QRKSJ+yZaSHK7sxswgxeLHsDqJqUX1pV1zpf3vjxbQjkxYUL3Uugst69kmibOe4Yo17b7MYCWlhAF0bmdCVtgyK13mjxDzHQrjd5cL2fMmd/e6Gtw6MzPcKZwlms+hWQ+ad45nOM9V2sYdrSc+XeECfRkDbvzdWyL8VcSvD931vRyIcVy4Fkw5SU6sUslLBUqqOS3I0OrzA9OIMMAKZnuo9AKjV3AQo9hk+qw+m8S5u2gw+nmnE7WnACjLs56uplBH72skjx/iqaTPZvFiYWTqFVrts/HGZ7avk0wmZA+LvmCLYGOph2AUwJtCu8eJeXw2xBpQlNj4H6MZcLL4221gcW5Mq5cXuFVUpzh6O3IbbwNPb1c0z18KLRCU1vXNHFtH21ldi1FtSkqtCT8uiamf4dijIRuJBNihDEu/+T5ZQna78dfGsfPzh/CwvwCkuUkEmlCUwHarzW75ui0PxFpe21LD14WE55w72KENkKLcm+91a8BzO2LZX341MotnrJKKBSqqJRqqCTHEN9yJ/qGNtK0h23bknnHNNO2rr2Ja3CHqBBb0iGsLbhaBCbFxBRuSWPyiJbkfakl2/J465nKYDA/hOMXjvHd+kmslEu8X+cSSScRT/N4qTM9P0rh14VmDa5JrQxJ69ib489QOMvaziShMu0zTTKhLbSyUqc5V1EsUuAqFRTj0hu7CZmJHcjl+53AmX4kkwxJ+euqaDRF65MFkrhmW/jWJPFRLBYZQbKjG0DkFXtzgyPzrkdCa6VoP5Tw6SQ9P4OdnkwPNi9uxunZ0zg99wJK5WU7ZMQY+ysSU2TGa1wra6nY9JGw4vb3jPECgnilY3uZSEFr3DXKFLbEWS2zXGfwVKfAVV6GYpTh5/BWZLjVaqtKZvqo6F4kOMuROIVWdGZCi04QulsypwHJ8tjjTyKuQtu7ee2Y7tkco3nL/xkMBbfwk2061Oh4maXwvTzVDfcNY7I4iXNXzuF84TwWygW+geXrJf60yGJ0hax8QgSX4+kvy5h4htgVxze4xuuME5Tz/SUvKnkHHuOFZXoEkdFNSA8yCsvyDo6KlvNK8HSXSPB8Lc+twwcdWURn7VUz/XKhNcMXL76Ir33jW4gvFAo8wdBUTEgvOTMNkzXI2QUUFuERTudp3dwkOfPZdA6lXIln3j7u/VRAeRJLpSU7Y88uXuJhZ56/bSuCJ2NuVxSMWCP8JcUcf56RNJ+gExmdKX/g10zxpx6Mr2O940jmBmlVOSR5gRCXoDTnBMNPC0o0w2Etc5ajnGEtTdmlS4FjX2Wmy83l4hI+9ZnP4vz5GUT++M8/2Pr4Rz6Ivr5em/i1Q5yv0crQz7P4Q1w+dT76iVidAlSZ1/hzkor+4Y6vnFcqK3xKVq/ykqHM9irb9QPCGn8yGmFc0MtYYVuyoVsQO0Do9BTj7EmoOJ2nnhiFU5wtLx2P8x/wbHY5s3SwdpOiWZZJh1mW5VoKua/6rMh/ufrMZ/8WT/3XfzuoyV17Wtu3bcVff/Kj2HjdBtOMTLt7uAkv0Vlo8T2z3rBKCQpupIQGL65rVIJ+KKhLDL16rtaYU3Crs63Bvghh+Z4FOS4BXe0l6NVkPTonyFRltjGZLtdrnDOqdSvLovReWAoqWN5sBoFlm2EprhZVFkvroiwzFy7ik5/6DH753FGrK16JbL91L9+eNjA2OoL77n0nfmvfGzA40G/CaVsyFbS1KVRESE+svkaXEiS81RmJSCFar7pDk4LshwfM9Y5ar+60VyQ563Qw9CNymhRepspl5GbTzaT9W5UXUsKa0zInyeVnS9OZtmPPHaLEm3yJtqyFhQIe+8ETXNPfxoUXL9lyttMhB/wPJlrDOusY9LAAAAAASUVORK5CYII=;" vertex="1" parent="1">
          <mxGeometry x="-232" y="690" width="62" height="60" as="geometry" />
        </mxCell>
      </root>
    </mxGraphModel>
  </diagram>
</mxfile>
